G04 #@! TF.FileFunction,Legend,Top*
%FSLAX46Y46*%
G04 Gerber Fmt 4.6, Leading zero omitted, Abs format (unit mm)*
G04 Created by KiCad (PCBNEW 4.0.2-stable) date Tue May 17 20:09:04 2016*
%MOMM*%
G01*
G04 APERTURE LIST*
%ADD10C,0.100000*%
%ADD11C,0.300000*%
%ADD12C,0.200000*%
%ADD13C,0.150000*%
%ADD14C,0.000250*%
G04 APERTURE END LIST*
D10*
D11*
X132428573Y-104178571D02*
X131714287Y-104178571D01*
X131642858Y-104892857D01*
X131714287Y-104821429D01*
X131857144Y-104750000D01*
X132214287Y-104750000D01*
X132357144Y-104821429D01*
X132428573Y-104892857D01*
X132500001Y-105035714D01*
X132500001Y-105392857D01*
X132428573Y-105535714D01*
X132357144Y-105607143D01*
X132214287Y-105678571D01*
X131857144Y-105678571D01*
X131714287Y-105607143D01*
X131642858Y-105535714D01*
X134285715Y-105678571D02*
X134285715Y-104678571D01*
X134285715Y-104821429D02*
X134357143Y-104750000D01*
X134500001Y-104678571D01*
X134714286Y-104678571D01*
X134857143Y-104750000D01*
X134928572Y-104892857D01*
X134928572Y-105678571D01*
X134928572Y-104892857D02*
X135000001Y-104750000D01*
X135142858Y-104678571D01*
X135357143Y-104678571D01*
X135500001Y-104750000D01*
X135571429Y-104892857D01*
X135571429Y-105678571D01*
X136285715Y-105678571D02*
X136285715Y-104678571D01*
X136285715Y-104821429D02*
X136357143Y-104750000D01*
X136500001Y-104678571D01*
X136714286Y-104678571D01*
X136857143Y-104750000D01*
X136928572Y-104892857D01*
X136928572Y-105678571D01*
X136928572Y-104892857D02*
X137000001Y-104750000D01*
X137142858Y-104678571D01*
X137357143Y-104678571D01*
X137500001Y-104750000D01*
X137571429Y-104892857D01*
X137571429Y-105678571D01*
X140000000Y-105607143D02*
X139857143Y-105678571D01*
X139571429Y-105678571D01*
X139428572Y-105607143D01*
X139357143Y-105464286D01*
X139357143Y-104892857D01*
X139428572Y-104750000D01*
X139571429Y-104678571D01*
X139857143Y-104678571D01*
X140000000Y-104750000D01*
X140071429Y-104892857D01*
X140071429Y-105035714D01*
X139357143Y-105178571D01*
X140714286Y-105107143D02*
X141857143Y-105107143D01*
X142357143Y-104678571D02*
X142928572Y-104678571D01*
X142571429Y-105678571D02*
X142571429Y-104392857D01*
X142642857Y-104250000D01*
X142785715Y-104178571D01*
X142928572Y-104178571D01*
X143428572Y-105678571D02*
X143428572Y-104678571D01*
X143428572Y-104178571D02*
X143357143Y-104250000D01*
X143428572Y-104321429D01*
X143500000Y-104250000D01*
X143428572Y-104178571D01*
X143428572Y-104321429D01*
X144714286Y-105607143D02*
X144571429Y-105678571D01*
X144285715Y-105678571D01*
X144142858Y-105607143D01*
X144071429Y-105464286D01*
X144071429Y-104892857D01*
X144142858Y-104750000D01*
X144285715Y-104678571D01*
X144571429Y-104678571D01*
X144714286Y-104750000D01*
X144785715Y-104892857D01*
X144785715Y-105035714D01*
X144071429Y-105178571D01*
X145642858Y-105678571D02*
X145500000Y-105607143D01*
X145428572Y-105464286D01*
X145428572Y-104178571D01*
X146857143Y-105678571D02*
X146857143Y-104178571D01*
X146857143Y-105607143D02*
X146714286Y-105678571D01*
X146428572Y-105678571D01*
X146285714Y-105607143D01*
X146214286Y-105535714D01*
X146142857Y-105392857D01*
X146142857Y-104964286D01*
X146214286Y-104821429D01*
X146285714Y-104750000D01*
X146428572Y-104678571D01*
X146714286Y-104678571D01*
X146857143Y-104750000D01*
X148714286Y-104678571D02*
X148714286Y-106178571D01*
X148714286Y-104750000D02*
X148857143Y-104678571D01*
X149142857Y-104678571D01*
X149285714Y-104750000D01*
X149357143Y-104821429D01*
X149428572Y-104964286D01*
X149428572Y-105392857D01*
X149357143Y-105535714D01*
X149285714Y-105607143D01*
X149142857Y-105678571D01*
X148857143Y-105678571D01*
X148714286Y-105607143D01*
X150071429Y-105678571D02*
X150071429Y-104678571D01*
X150071429Y-104964286D02*
X150142857Y-104821429D01*
X150214286Y-104750000D01*
X150357143Y-104678571D01*
X150500000Y-104678571D01*
X151214286Y-105678571D02*
X151071428Y-105607143D01*
X151000000Y-105535714D01*
X150928571Y-105392857D01*
X150928571Y-104964286D01*
X151000000Y-104821429D01*
X151071428Y-104750000D01*
X151214286Y-104678571D01*
X151428571Y-104678571D01*
X151571428Y-104750000D01*
X151642857Y-104821429D01*
X151714286Y-104964286D01*
X151714286Y-105392857D01*
X151642857Y-105535714D01*
X151571428Y-105607143D01*
X151428571Y-105678571D01*
X151214286Y-105678571D01*
X152357143Y-105678571D02*
X152357143Y-104178571D01*
X152357143Y-104750000D02*
X152500000Y-104678571D01*
X152785714Y-104678571D01*
X152928571Y-104750000D01*
X153000000Y-104821429D01*
X153071429Y-104964286D01*
X153071429Y-105392857D01*
X153000000Y-105535714D01*
X152928571Y-105607143D01*
X152785714Y-105678571D01*
X152500000Y-105678571D01*
X152357143Y-105607143D01*
X154285714Y-105607143D02*
X154142857Y-105678571D01*
X153857143Y-105678571D01*
X153714286Y-105607143D01*
X153642857Y-105464286D01*
X153642857Y-104892857D01*
X153714286Y-104750000D01*
X153857143Y-104678571D01*
X154142857Y-104678571D01*
X154285714Y-104750000D01*
X154357143Y-104892857D01*
X154357143Y-105035714D01*
X153642857Y-105178571D01*
D12*
X117000000Y-105000000D02*
G75*
G03X117000000Y-105000000I-2000000J0D01*
G01*
D13*
X110936000Y-108810000D02*
X110936000Y-101190000D01*
X110682000Y-108810000D02*
X111190000Y-108810000D01*
X110682000Y-101190000D02*
X110682000Y-108810000D01*
X110682000Y-101190000D02*
X111190000Y-101190000D01*
X118810000Y-108810000D02*
X111190000Y-108810000D01*
X118810000Y-101190000D02*
X118810000Y-108810000D01*
X111190000Y-101190000D02*
X118810000Y-101190000D01*
D14*
X104998286Y-100999452D02*
X104998286Y-101000262D01*
X104998334Y-101000357D01*
X104998381Y-101000405D01*
X104998477Y-101000452D01*
X104998667Y-101000452D01*
X104998762Y-101000405D01*
X104998810Y-101000357D01*
X104998858Y-101000262D01*
X104998858Y-100999452D01*
X104999858Y-101000452D02*
X104999286Y-101000452D01*
X104999572Y-101000452D02*
X104999572Y-100999452D01*
X104999477Y-100999595D01*
X104999382Y-100999690D01*
X104999286Y-100999738D01*
X105000477Y-100999452D02*
X105000572Y-100999452D01*
X105000667Y-100999500D01*
X105000715Y-100999548D01*
X105000762Y-100999643D01*
X105000810Y-100999833D01*
X105000810Y-101000071D01*
X105000762Y-101000262D01*
X105000715Y-101000357D01*
X105000667Y-101000405D01*
X105000572Y-101000452D01*
X105000477Y-101000452D01*
X105000381Y-101000405D01*
X105000334Y-101000357D01*
X105000286Y-101000262D01*
X105000238Y-101000071D01*
X105000238Y-100999833D01*
X105000286Y-100999643D01*
X105000334Y-100999548D01*
X105000381Y-100999500D01*
X105000477Y-100999452D01*
X105001762Y-101000452D02*
X105001190Y-101000452D01*
X105001476Y-101000452D02*
X105001476Y-100999452D01*
X105001381Y-100999595D01*
X105001286Y-100999690D01*
X105001190Y-100999738D01*
M02*
