G04 #@! TF.FileFunction,Copper,L4,Bot,Signal*
%FSLAX46Y46*%
G04 Gerber Fmt 4.6, Leading zero omitted, Abs format (unit mm)*
G04 Created by KiCad (PCBNEW 4.0.2-stable) date Tue May 17 20:09:04 2016*
%MOMM*%
G01*
G04 APERTURE LIST*
%ADD10C,0.100000*%
%ADD11C,1.800000*%
%ADD12C,0.600000*%
G04 APERTURE END LIST*
D10*
D11*
X115000000Y-105000000D03*
X112460000Y-107540000D03*
X112460000Y-102460000D03*
X117540000Y-102460000D03*
X117540000Y-107540000D03*
D12*
X112000000Y-105000000D03*
X115000000Y-108000000D03*
X115000000Y-102000000D03*
X119500000Y-103000000D03*
X119500000Y-107000000D03*
X120500000Y-106500000D03*
X122000000Y-106500000D03*
X123500000Y-106500000D03*
X125000000Y-106500000D03*
X126500000Y-106500000D03*
X128000000Y-106500000D03*
X129500000Y-106500000D03*
X131000000Y-106500000D03*
X132500000Y-106500000D03*
X134000000Y-106500000D03*
X135500000Y-106500000D03*
X137000000Y-106500000D03*
X138500000Y-106500000D03*
X140000000Y-106500000D03*
X141500000Y-106500000D03*
X143000000Y-106500000D03*
X144500000Y-106500000D03*
X146000000Y-106500000D03*
X147500000Y-106500000D03*
X149000000Y-106500000D03*
X150500000Y-106500000D03*
X152000000Y-106500000D03*
X153500000Y-106500000D03*
X155000000Y-106500000D03*
X156500000Y-106500000D03*
X158000000Y-106500000D03*
X159500000Y-106500000D03*
X161000000Y-106500000D03*
X162500000Y-106500000D03*
X164000000Y-106500000D03*
X165500000Y-106500000D03*
X167000000Y-106500000D03*
X168500000Y-106500000D03*
X170000000Y-106500000D03*
X171500000Y-106500000D03*
X173000000Y-106500000D03*
X173000000Y-103500000D03*
X171500000Y-103500000D03*
X170000000Y-103500000D03*
X168500000Y-103500000D03*
X167000000Y-103500000D03*
X165500000Y-103500000D03*
X164000000Y-103500000D03*
X162500000Y-103500000D03*
X161000000Y-103500000D03*
X159500000Y-103500000D03*
X158000000Y-103500000D03*
X156500000Y-103500000D03*
X155000000Y-103500000D03*
X153500000Y-103500000D03*
X152000000Y-103500000D03*
X150500000Y-103500000D03*
X149000000Y-103500000D03*
X147500000Y-103500000D03*
X146000000Y-103500000D03*
X144500000Y-103500000D03*
X143000000Y-103500000D03*
X141500000Y-103500000D03*
X140000000Y-103500000D03*
X138500000Y-103500000D03*
X137000000Y-103500000D03*
X135500000Y-103500000D03*
X134000000Y-103500000D03*
X132500000Y-103500000D03*
X131000000Y-103500000D03*
X129500000Y-103500000D03*
X128000000Y-103500000D03*
X126500000Y-103500000D03*
X125000000Y-103500000D03*
X123500000Y-103500000D03*
X122000000Y-103500000D03*
X120500000Y-103500000D03*
M02*
