M48
;DRILL file {KiCad 4.0.2-stable} date Tue May 17 20:09:05 2016
;FORMAT={3:3/ absolute / metric / keep zeros}
FMAT,2
METRIC,TZ
T1C0.400
T2C1.500
%
G90
G05
M71
T1
X112000Y-105000
X115000Y-102000
X115000Y-108000
X119500Y-103000
X119500Y-107000
X120500Y-103500
X120500Y-106500
X122000Y-103500
X122000Y-106500
X123500Y-103500
X123500Y-106500
X125000Y-103500
X125000Y-106500
X126500Y-103500
X126500Y-106500
X128000Y-103500
X128000Y-106500
X129500Y-103500
X129500Y-106500
X131000Y-103500
X131000Y-106500
X132500Y-103500
X132500Y-106500
X134000Y-103500
X134000Y-106500
X135500Y-103500
X135500Y-106500
X137000Y-103500
X137000Y-106500
X138500Y-103500
X138500Y-106500
X140000Y-103500
X140000Y-106500
X141500Y-103500
X141500Y-106500
X143000Y-103500
X143000Y-106500
X144500Y-103500
X144500Y-106500
X146000Y-103500
X146000Y-106500
X147500Y-103500
X147500Y-106500
X149000Y-103500
X149000Y-106500
X150500Y-103500
X150500Y-106500
X152000Y-103500
X152000Y-106500
X153500Y-103500
X153500Y-106500
X155000Y-103500
X155000Y-106500
X156500Y-103500
X156500Y-106500
X158000Y-103500
X158000Y-106500
X159500Y-103500
X159500Y-106500
X161000Y-103500
X161000Y-106500
X162500Y-103500
X162500Y-106500
X164000Y-103500
X164000Y-106500
X165500Y-103500
X165500Y-106500
X167000Y-103500
X167000Y-106500
X168500Y-103500
X168500Y-106500
X170000Y-103500
X170000Y-106500
X171500Y-103500
X171500Y-106500
X173000Y-103500
X173000Y-106500
T2
X112460Y-102460
X112460Y-107540
X115000Y-105000
X117540Y-102460
X117540Y-107540
T0
M30
