G04 #@! TF.FileFunction,Copper,L3,Inr,Signal*
%FSLAX46Y46*%
G04 Gerber Fmt 4.6, Leading zero omitted, Abs format (unit mm)*
G04 Created by KiCad (PCBNEW 4.0.2-stable) date Tue May 17 21:08:33 2016*
%MOMM*%
G01*
G04 APERTURE LIST*
%ADD10C,0.100000*%
%ADD11C,1.800000*%
%ADD12C,0.600000*%
%ADD13C,0.250000*%
%ADD14C,0.254000*%
G04 APERTURE END LIST*
D10*
D11*
X115000000Y-105000000D03*
X112460000Y-107540000D03*
X112460000Y-102460000D03*
X117540000Y-102460000D03*
X117540000Y-107540000D03*
D12*
X177500000Y-105750000D03*
X112000000Y-105000000D03*
X115000000Y-108000000D03*
X115000000Y-102000000D03*
X119500000Y-103000000D03*
X119500000Y-107000000D03*
X120500000Y-106500000D03*
X122000000Y-106500000D03*
X123500000Y-106500000D03*
X125000000Y-106500000D03*
X126500000Y-106500000D03*
X128000000Y-106500000D03*
X129500000Y-106500000D03*
X131000000Y-106500000D03*
X132500000Y-106500000D03*
X134000000Y-106500000D03*
X135500000Y-106500000D03*
X137000000Y-106500000D03*
X138500000Y-106500000D03*
X140000000Y-106500000D03*
X141500000Y-106500000D03*
X143000000Y-106500000D03*
X144500000Y-106500000D03*
X146000000Y-106500000D03*
X147500000Y-106500000D03*
X149000000Y-106500000D03*
X150500000Y-106500000D03*
X152000000Y-106500000D03*
X153500000Y-106500000D03*
X155000000Y-106500000D03*
X156500000Y-106500000D03*
X158000000Y-106500000D03*
X159500000Y-106500000D03*
X161000000Y-106500000D03*
X162500000Y-106500000D03*
X164000000Y-106500000D03*
X165500000Y-106500000D03*
X167000000Y-106500000D03*
X168500000Y-106500000D03*
X170000000Y-106500000D03*
X171500000Y-106500000D03*
X173000000Y-106500000D03*
X173000000Y-103500000D03*
X171500000Y-103500000D03*
X170000000Y-103500000D03*
X168500000Y-103500000D03*
X167000000Y-103500000D03*
X165500000Y-103500000D03*
X164000000Y-103500000D03*
X162500000Y-103500000D03*
X161000000Y-103500000D03*
X159500000Y-103500000D03*
X158000000Y-103500000D03*
X156500000Y-103500000D03*
X155000000Y-103500000D03*
X153500000Y-103500000D03*
X152000000Y-103500000D03*
X150500000Y-103500000D03*
X149000000Y-103500000D03*
X147500000Y-103500000D03*
X146000000Y-103500000D03*
X144500000Y-103500000D03*
X143000000Y-103500000D03*
X141500000Y-103500000D03*
X140000000Y-103500000D03*
X138500000Y-103500000D03*
X137000000Y-103500000D03*
X135500000Y-103500000D03*
X134000000Y-103500000D03*
X132500000Y-103500000D03*
X131000000Y-103500000D03*
X129500000Y-103500000D03*
X128000000Y-103500000D03*
X126500000Y-103500000D03*
X125000000Y-103500000D03*
X123500000Y-103500000D03*
X122000000Y-103500000D03*
X120500000Y-103500000D03*
D13*
X173000000Y-103500000D02*
X173000000Y-106500000D01*
X112000000Y-105807208D02*
X112000000Y-105000000D01*
X112460000Y-107540000D02*
X112460000Y-106267208D01*
X112460000Y-106267208D02*
X112000000Y-105807208D01*
X117540000Y-102460000D02*
X115460000Y-102460000D01*
X115460000Y-102460000D02*
X115000000Y-102000000D01*
X120000000Y-106500000D02*
X119500000Y-107000000D01*
X120500000Y-106500000D02*
X120000000Y-106500000D01*
X122000000Y-106500000D02*
X120500000Y-106500000D01*
X123500000Y-106500000D02*
X122000000Y-106500000D01*
X125000000Y-106500000D02*
X123500000Y-106500000D01*
X126500000Y-106500000D02*
X125000000Y-106500000D01*
X128000000Y-106500000D02*
X126500000Y-106500000D01*
X152000000Y-106500000D02*
X151000000Y-106500000D01*
X153500000Y-106500000D02*
X152000000Y-106500000D01*
X171500000Y-106500000D02*
X170000000Y-106500000D01*
X171500000Y-103500000D02*
X173000000Y-103500000D01*
X168500000Y-103500000D02*
X170000000Y-103500000D01*
X165500000Y-103500000D02*
X167000000Y-103500000D01*
X161000000Y-103500000D02*
X162500000Y-103500000D01*
X162500000Y-103500000D02*
X163000000Y-103500000D01*
X159500000Y-103500000D02*
X161000000Y-103500000D01*
X155000000Y-103500000D02*
X156500000Y-103500000D01*
X149000000Y-103500000D02*
X150500000Y-103500000D01*
X147500000Y-103500000D02*
X149000000Y-103500000D01*
X146000000Y-103500000D02*
X147500000Y-103500000D01*
X144500000Y-103500000D02*
X146000000Y-103500000D01*
X143000000Y-103500000D02*
X144500000Y-103500000D01*
X138500000Y-103500000D02*
X140000000Y-103500000D01*
X137000000Y-103500000D02*
X138500000Y-103500000D01*
X135500000Y-103500000D02*
X137000000Y-103500000D01*
X131000000Y-103500000D02*
X132500000Y-103500000D01*
X129500000Y-103500000D02*
X131000000Y-103500000D01*
X126500000Y-103500000D02*
X128000000Y-103500000D01*
D14*
G36*
X120215743Y-102784257D02*
X120346161Y-102871400D01*
X120500000Y-102902000D01*
X175000000Y-102902000D01*
X175153839Y-102871400D01*
X175284257Y-102784257D01*
X175371400Y-102653839D01*
X175376739Y-102627000D01*
X175500000Y-102627000D01*
X175549410Y-102616994D01*
X175591035Y-102588553D01*
X175618315Y-102546159D01*
X175627000Y-102500000D01*
X175627000Y-101627000D01*
X177873000Y-101627000D01*
X177873000Y-104623000D01*
X177127000Y-104623000D01*
X177127000Y-102500000D01*
X177118315Y-102453841D01*
X177091035Y-102411447D01*
X177049410Y-102383006D01*
X177000000Y-102373000D01*
X176500000Y-102373000D01*
X176453841Y-102381685D01*
X176411447Y-102408965D01*
X176383006Y-102450590D01*
X176373000Y-102500000D01*
X176373000Y-107500000D01*
X176381685Y-107546159D01*
X176408965Y-107588553D01*
X176450590Y-107616994D01*
X176500000Y-107627000D01*
X177000000Y-107627000D01*
X177046159Y-107618315D01*
X177088553Y-107591035D01*
X177116994Y-107549410D01*
X177127000Y-107500000D01*
X177127000Y-105377000D01*
X177873000Y-105377000D01*
X177873000Y-108373000D01*
X175627000Y-108373000D01*
X175627000Y-107500000D01*
X175616994Y-107450590D01*
X175588553Y-107408965D01*
X175546159Y-107381685D01*
X175500000Y-107373000D01*
X175376739Y-107373000D01*
X175371400Y-107346161D01*
X175284257Y-107215743D01*
X175153839Y-107128600D01*
X175000000Y-107098000D01*
X120500000Y-107098000D01*
X120346161Y-107128600D01*
X120215743Y-107215743D01*
X118833486Y-108598000D01*
X111402000Y-108598000D01*
X111402000Y-104700000D01*
X112873000Y-104700000D01*
X112873000Y-105200000D01*
X112877886Y-105234890D01*
X113077886Y-105934890D01*
X113094330Y-105970447D01*
X113294330Y-106270447D01*
X113310197Y-106289803D01*
X113710197Y-106689803D01*
X113729553Y-106705670D01*
X114029553Y-106905670D01*
X114065110Y-106922114D01*
X114765110Y-107122114D01*
X114800000Y-107127000D01*
X115200000Y-107127000D01*
X115230802Y-107123208D01*
X115630802Y-107023208D01*
X115640161Y-107020483D01*
X115940161Y-106920483D01*
X115970447Y-106905670D01*
X116270447Y-106705670D01*
X116289803Y-106689803D01*
X116589803Y-106389803D01*
X116605670Y-106370447D01*
X116805670Y-106070447D01*
X116813592Y-106056796D01*
X117013592Y-105656796D01*
X117023208Y-105630802D01*
X117123208Y-105230802D01*
X117127000Y-105200000D01*
X117127000Y-104800000D01*
X117123208Y-104769198D01*
X117023208Y-104369198D01*
X117017917Y-104352833D01*
X116817917Y-103852833D01*
X116789803Y-103810197D01*
X116289803Y-103310197D01*
X116263010Y-103289733D01*
X115563010Y-102889733D01*
X115500000Y-102873000D01*
X114800000Y-102873000D01*
X114775093Y-102875466D01*
X114275093Y-102975466D01*
X114226183Y-102996656D01*
X113526183Y-103496656D01*
X113500830Y-103520664D01*
X113100830Y-104020664D01*
X113079517Y-104059839D01*
X112879517Y-104659839D01*
X112873000Y-104700000D01*
X111402000Y-104700000D01*
X111402000Y-101402000D01*
X118833486Y-101402000D01*
X120215743Y-102784257D01*
X120215743Y-102784257D01*
G37*
X120215743Y-102784257D02*
X120346161Y-102871400D01*
X120500000Y-102902000D01*
X175000000Y-102902000D01*
X175153839Y-102871400D01*
X175284257Y-102784257D01*
X175371400Y-102653839D01*
X175376739Y-102627000D01*
X175500000Y-102627000D01*
X175549410Y-102616994D01*
X175591035Y-102588553D01*
X175618315Y-102546159D01*
X175627000Y-102500000D01*
X175627000Y-101627000D01*
X177873000Y-101627000D01*
X177873000Y-104623000D01*
X177127000Y-104623000D01*
X177127000Y-102500000D01*
X177118315Y-102453841D01*
X177091035Y-102411447D01*
X177049410Y-102383006D01*
X177000000Y-102373000D01*
X176500000Y-102373000D01*
X176453841Y-102381685D01*
X176411447Y-102408965D01*
X176383006Y-102450590D01*
X176373000Y-102500000D01*
X176373000Y-107500000D01*
X176381685Y-107546159D01*
X176408965Y-107588553D01*
X176450590Y-107616994D01*
X176500000Y-107627000D01*
X177000000Y-107627000D01*
X177046159Y-107618315D01*
X177088553Y-107591035D01*
X177116994Y-107549410D01*
X177127000Y-107500000D01*
X177127000Y-105377000D01*
X177873000Y-105377000D01*
X177873000Y-108373000D01*
X175627000Y-108373000D01*
X175627000Y-107500000D01*
X175616994Y-107450590D01*
X175588553Y-107408965D01*
X175546159Y-107381685D01*
X175500000Y-107373000D01*
X175376739Y-107373000D01*
X175371400Y-107346161D01*
X175284257Y-107215743D01*
X175153839Y-107128600D01*
X175000000Y-107098000D01*
X120500000Y-107098000D01*
X120346161Y-107128600D01*
X120215743Y-107215743D01*
X118833486Y-108598000D01*
X111402000Y-108598000D01*
X111402000Y-104700000D01*
X112873000Y-104700000D01*
X112873000Y-105200000D01*
X112877886Y-105234890D01*
X113077886Y-105934890D01*
X113094330Y-105970447D01*
X113294330Y-106270447D01*
X113310197Y-106289803D01*
X113710197Y-106689803D01*
X113729553Y-106705670D01*
X114029553Y-106905670D01*
X114065110Y-106922114D01*
X114765110Y-107122114D01*
X114800000Y-107127000D01*
X115200000Y-107127000D01*
X115230802Y-107123208D01*
X115630802Y-107023208D01*
X115640161Y-107020483D01*
X115940161Y-106920483D01*
X115970447Y-106905670D01*
X116270447Y-106705670D01*
X116289803Y-106689803D01*
X116589803Y-106389803D01*
X116605670Y-106370447D01*
X116805670Y-106070447D01*
X116813592Y-106056796D01*
X117013592Y-105656796D01*
X117023208Y-105630802D01*
X117123208Y-105230802D01*
X117127000Y-105200000D01*
X117127000Y-104800000D01*
X117123208Y-104769198D01*
X117023208Y-104369198D01*
X117017917Y-104352833D01*
X116817917Y-103852833D01*
X116789803Y-103810197D01*
X116289803Y-103310197D01*
X116263010Y-103289733D01*
X115563010Y-102889733D01*
X115500000Y-102873000D01*
X114800000Y-102873000D01*
X114775093Y-102875466D01*
X114275093Y-102975466D01*
X114226183Y-102996656D01*
X113526183Y-103496656D01*
X113500830Y-103520664D01*
X113100830Y-104020664D01*
X113079517Y-104059839D01*
X112879517Y-104659839D01*
X112873000Y-104700000D01*
X111402000Y-104700000D01*
X111402000Y-101402000D01*
X118833486Y-101402000D01*
X120215743Y-102784257D01*
M02*
