G04 #@! TF.FileFunction,Copper,L4,Bot,Signal*
%FSLAX46Y46*%
G04 Gerber Fmt 4.6, Leading zero omitted, Abs format (unit mm)*
G04 Created by KiCad (PCBNEW 4.0.2-stable) date Mon May 16 23:46:34 2016*
%MOMM*%
G01*
G04 APERTURE LIST*
%ADD10C,0.100000*%
%ADD11C,1.800000*%
%ADD12C,0.600000*%
G04 APERTURE END LIST*
D10*
D11*
X115000000Y-105000000D03*
X112460000Y-107540000D03*
X112460000Y-102460000D03*
X117540000Y-102460000D03*
X117540000Y-107540000D03*
X175000000Y-105000000D03*
X177540000Y-102460000D03*
X177540000Y-107540000D03*
X172460000Y-107540000D03*
X172460000Y-102460000D03*
D12*
X147500000Y-107500000D03*
X145000000Y-107500000D03*
X142500000Y-107500000D03*
X140000000Y-107500000D03*
X137500000Y-107500000D03*
X135000000Y-107500000D03*
X132500000Y-107500000D03*
X130000000Y-107500000D03*
X127500000Y-107500000D03*
X125000000Y-107500000D03*
X122500000Y-107500000D03*
X120000000Y-107500000D03*
X150000000Y-107500000D03*
X152500000Y-107500000D03*
X157500000Y-107500000D03*
X155000000Y-107500000D03*
X160000000Y-107500000D03*
X162500000Y-107500000D03*
X165000000Y-107500000D03*
X167500000Y-107500000D03*
X170000000Y-107500000D03*
X170000000Y-102500000D03*
X167500000Y-102500000D03*
X165000000Y-102500000D03*
X162500000Y-102500000D03*
X160000000Y-102500000D03*
X157500000Y-102500000D03*
X155000000Y-102500000D03*
X152500000Y-102500000D03*
X150000000Y-102500000D03*
X147500000Y-102500000D03*
X145000000Y-102500000D03*
X142500000Y-102500000D03*
X140000000Y-102500000D03*
X137500000Y-102500000D03*
X135000000Y-102500000D03*
X132500000Y-102500000D03*
X130000000Y-102500000D03*
X127500000Y-102500000D03*
X125000000Y-102500000D03*
X122500000Y-102500000D03*
X120000000Y-102500000D03*
M02*
