G04 #@! TF.FileFunction,Legend,Top*
%FSLAX46Y46*%
G04 Gerber Fmt 4.6, Leading zero omitted, Abs format (unit mm)*
G04 Created by KiCad (PCBNEW 4.0.2-stable) date Mon May 16 23:46:34 2016*
%MOMM*%
G01*
G04 APERTURE LIST*
%ADD10C,0.100000*%
%ADD11C,0.225000*%
%ADD12C,0.150000*%
%ADD13C,0.000250*%
G04 APERTURE END LIST*
D10*
D11*
X123664285Y-103022143D02*
X123492856Y-103022143D01*
X123407142Y-103065000D01*
X123364285Y-103107857D01*
X123278571Y-103236429D01*
X123235714Y-103407857D01*
X123235714Y-103750714D01*
X123278571Y-103836429D01*
X123321428Y-103879286D01*
X123407142Y-103922143D01*
X123578571Y-103922143D01*
X123664285Y-103879286D01*
X123707142Y-103836429D01*
X123749999Y-103750714D01*
X123749999Y-103536429D01*
X123707142Y-103450714D01*
X123664285Y-103407857D01*
X123578571Y-103365000D01*
X123407142Y-103365000D01*
X123321428Y-103407857D01*
X123278571Y-103450714D01*
X123235714Y-103536429D01*
X124307142Y-103022143D02*
X124392857Y-103022143D01*
X124478571Y-103065000D01*
X124521428Y-103107857D01*
X124564285Y-103193571D01*
X124607142Y-103365000D01*
X124607142Y-103579286D01*
X124564285Y-103750714D01*
X124521428Y-103836429D01*
X124478571Y-103879286D01*
X124392857Y-103922143D01*
X124307142Y-103922143D01*
X124221428Y-103879286D01*
X124178571Y-103836429D01*
X124135714Y-103750714D01*
X124092857Y-103579286D01*
X124092857Y-103365000D01*
X124135714Y-103193571D01*
X124178571Y-103107857D01*
X124221428Y-103065000D01*
X124307142Y-103022143D01*
X125678571Y-103922143D02*
X125678571Y-103322143D01*
X125678571Y-103407857D02*
X125721428Y-103365000D01*
X125807142Y-103322143D01*
X125935714Y-103322143D01*
X126021428Y-103365000D01*
X126064285Y-103450714D01*
X126064285Y-103922143D01*
X126064285Y-103450714D02*
X126107142Y-103365000D01*
X126192856Y-103322143D01*
X126321428Y-103322143D01*
X126407142Y-103365000D01*
X126449999Y-103450714D01*
X126449999Y-103922143D01*
X126878571Y-103922143D02*
X126878571Y-103322143D01*
X126878571Y-103407857D02*
X126921428Y-103365000D01*
X127007142Y-103322143D01*
X127135714Y-103322143D01*
X127221428Y-103365000D01*
X127264285Y-103450714D01*
X127264285Y-103922143D01*
X127264285Y-103450714D02*
X127307142Y-103365000D01*
X127392856Y-103322143D01*
X127521428Y-103322143D01*
X127607142Y-103365000D01*
X127649999Y-103450714D01*
X127649999Y-103922143D01*
X128892856Y-103922143D02*
X128807142Y-103879286D01*
X128764285Y-103793571D01*
X128764285Y-103022143D01*
X129364285Y-103922143D02*
X129278571Y-103879286D01*
X129235714Y-103836429D01*
X129192857Y-103750714D01*
X129192857Y-103493571D01*
X129235714Y-103407857D01*
X129278571Y-103365000D01*
X129364285Y-103322143D01*
X129492857Y-103322143D01*
X129578571Y-103365000D01*
X129621428Y-103407857D01*
X129664285Y-103493571D01*
X129664285Y-103750714D01*
X129621428Y-103836429D01*
X129578571Y-103879286D01*
X129492857Y-103922143D01*
X129364285Y-103922143D01*
X130050000Y-103322143D02*
X130050000Y-103922143D01*
X130050000Y-103407857D02*
X130092857Y-103365000D01*
X130178571Y-103322143D01*
X130307143Y-103322143D01*
X130392857Y-103365000D01*
X130435714Y-103450714D01*
X130435714Y-103922143D01*
X131250000Y-103322143D02*
X131250000Y-104050714D01*
X131207143Y-104136429D01*
X131164286Y-104179286D01*
X131078571Y-104222143D01*
X130950000Y-104222143D01*
X130864286Y-104179286D01*
X131250000Y-103879286D02*
X131164286Y-103922143D01*
X130992857Y-103922143D01*
X130907143Y-103879286D01*
X130864286Y-103836429D01*
X130821429Y-103750714D01*
X130821429Y-103493571D01*
X130864286Y-103407857D01*
X130907143Y-103365000D01*
X130992857Y-103322143D01*
X131164286Y-103322143D01*
X131250000Y-103365000D01*
X131721429Y-103879286D02*
X131721429Y-103922143D01*
X131678572Y-104007857D01*
X131635715Y-104050714D01*
X132792857Y-103836429D02*
X132835714Y-103879286D01*
X132792857Y-103922143D01*
X132750000Y-103879286D01*
X132792857Y-103836429D01*
X132792857Y-103922143D01*
X133178571Y-103107857D02*
X133221428Y-103065000D01*
X133307142Y-103022143D01*
X133521428Y-103022143D01*
X133607142Y-103065000D01*
X133649999Y-103107857D01*
X133692856Y-103193571D01*
X133692856Y-103279286D01*
X133649999Y-103407857D01*
X133135713Y-103922143D01*
X133692856Y-103922143D01*
X134507142Y-103022143D02*
X134078571Y-103022143D01*
X134035714Y-103450714D01*
X134078571Y-103407857D01*
X134164285Y-103365000D01*
X134378571Y-103365000D01*
X134464285Y-103407857D01*
X134507142Y-103450714D01*
X134549999Y-103536429D01*
X134549999Y-103750714D01*
X134507142Y-103836429D01*
X134464285Y-103879286D01*
X134378571Y-103922143D01*
X134164285Y-103922143D01*
X134078571Y-103879286D01*
X134035714Y-103836429D01*
X135621428Y-103922143D02*
X135621428Y-103322143D01*
X135621428Y-103407857D02*
X135664285Y-103365000D01*
X135749999Y-103322143D01*
X135878571Y-103322143D01*
X135964285Y-103365000D01*
X136007142Y-103450714D01*
X136007142Y-103922143D01*
X136007142Y-103450714D02*
X136049999Y-103365000D01*
X136135713Y-103322143D01*
X136264285Y-103322143D01*
X136349999Y-103365000D01*
X136392856Y-103450714D01*
X136392856Y-103922143D01*
X136821428Y-103922143D02*
X136821428Y-103322143D01*
X136821428Y-103407857D02*
X136864285Y-103365000D01*
X136949999Y-103322143D01*
X137078571Y-103322143D01*
X137164285Y-103365000D01*
X137207142Y-103450714D01*
X137207142Y-103922143D01*
X137207142Y-103450714D02*
X137249999Y-103365000D01*
X137335713Y-103322143D01*
X137464285Y-103322143D01*
X137549999Y-103365000D01*
X137592856Y-103450714D01*
X137592856Y-103922143D01*
X138621427Y-103322143D02*
X138792856Y-103922143D01*
X138964285Y-103493571D01*
X139135713Y-103922143D01*
X139307142Y-103322143D01*
X139649999Y-103922143D02*
X139649999Y-103322143D01*
X139649999Y-103022143D02*
X139607142Y-103065000D01*
X139649999Y-103107857D01*
X139692856Y-103065000D01*
X139649999Y-103022143D01*
X139649999Y-103107857D01*
X140464284Y-103922143D02*
X140464284Y-103022143D01*
X140464284Y-103879286D02*
X140378570Y-103922143D01*
X140207141Y-103922143D01*
X140121427Y-103879286D01*
X140078570Y-103836429D01*
X140035713Y-103750714D01*
X140035713Y-103493571D01*
X140078570Y-103407857D01*
X140121427Y-103365000D01*
X140207141Y-103322143D01*
X140378570Y-103322143D01*
X140464284Y-103365000D01*
X141235713Y-103879286D02*
X141149999Y-103922143D01*
X140978570Y-103922143D01*
X140892856Y-103879286D01*
X140849999Y-103793571D01*
X140849999Y-103450714D01*
X140892856Y-103365000D01*
X140978570Y-103322143D01*
X141149999Y-103322143D01*
X141235713Y-103365000D01*
X141278570Y-103450714D01*
X141278570Y-103536429D01*
X140849999Y-103622143D01*
X142478570Y-103922143D02*
X142392856Y-103879286D01*
X142349999Y-103836429D01*
X142307142Y-103750714D01*
X142307142Y-103493571D01*
X142349999Y-103407857D01*
X142392856Y-103365000D01*
X142478570Y-103322143D01*
X142607142Y-103322143D01*
X142692856Y-103365000D01*
X142735713Y-103407857D01*
X142778570Y-103493571D01*
X142778570Y-103750714D01*
X142735713Y-103836429D01*
X142692856Y-103879286D01*
X142607142Y-103922143D01*
X142478570Y-103922143D01*
X143035713Y-103322143D02*
X143378570Y-103322143D01*
X143164285Y-103922143D02*
X143164285Y-103150714D01*
X143207142Y-103065000D01*
X143292856Y-103022143D01*
X143378570Y-103022143D01*
X143549999Y-103322143D02*
X143892856Y-103322143D01*
X143678571Y-103922143D02*
X143678571Y-103150714D01*
X143721428Y-103065000D01*
X143807142Y-103022143D01*
X143892856Y-103022143D01*
X144150000Y-103879286D02*
X144235714Y-103922143D01*
X144407142Y-103922143D01*
X144492857Y-103879286D01*
X144535714Y-103793571D01*
X144535714Y-103750714D01*
X144492857Y-103665000D01*
X144407142Y-103622143D01*
X144278571Y-103622143D01*
X144192857Y-103579286D01*
X144150000Y-103493571D01*
X144150000Y-103450714D01*
X144192857Y-103365000D01*
X144278571Y-103322143D01*
X144407142Y-103322143D01*
X144492857Y-103365000D01*
X145264285Y-103879286D02*
X145178571Y-103922143D01*
X145007142Y-103922143D01*
X144921428Y-103879286D01*
X144878571Y-103793571D01*
X144878571Y-103450714D01*
X144921428Y-103365000D01*
X145007142Y-103322143D01*
X145178571Y-103322143D01*
X145264285Y-103365000D01*
X145307142Y-103450714D01*
X145307142Y-103536429D01*
X144878571Y-103622143D01*
X145564285Y-103322143D02*
X145907142Y-103322143D01*
X145692857Y-103022143D02*
X145692857Y-103793571D01*
X145735714Y-103879286D01*
X145821428Y-103922143D01*
X145907142Y-103922143D01*
X146850000Y-103879286D02*
X146935714Y-103922143D01*
X147107142Y-103922143D01*
X147192857Y-103879286D01*
X147235714Y-103793571D01*
X147235714Y-103750714D01*
X147192857Y-103665000D01*
X147107142Y-103622143D01*
X146978571Y-103622143D01*
X146892857Y-103579286D01*
X146850000Y-103493571D01*
X146850000Y-103450714D01*
X146892857Y-103365000D01*
X146978571Y-103322143D01*
X147107142Y-103322143D01*
X147192857Y-103365000D01*
X147492856Y-103322143D02*
X147835713Y-103322143D01*
X147621428Y-103022143D02*
X147621428Y-103793571D01*
X147664285Y-103879286D01*
X147749999Y-103922143D01*
X147835713Y-103922143D01*
X148135714Y-103922143D02*
X148135714Y-103322143D01*
X148135714Y-103493571D02*
X148178571Y-103407857D01*
X148221428Y-103365000D01*
X148307142Y-103322143D01*
X148392857Y-103322143D01*
X148692857Y-103922143D02*
X148692857Y-103322143D01*
X148692857Y-103022143D02*
X148650000Y-103065000D01*
X148692857Y-103107857D01*
X148735714Y-103065000D01*
X148692857Y-103022143D01*
X148692857Y-103107857D01*
X149121428Y-103322143D02*
X149121428Y-104222143D01*
X149121428Y-103365000D02*
X149207142Y-103322143D01*
X149378571Y-103322143D01*
X149464285Y-103365000D01*
X149507142Y-103407857D01*
X149549999Y-103493571D01*
X149549999Y-103750714D01*
X149507142Y-103836429D01*
X149464285Y-103879286D01*
X149378571Y-103922143D01*
X149207142Y-103922143D01*
X149121428Y-103879286D01*
X150064285Y-103922143D02*
X149978571Y-103879286D01*
X149935714Y-103793571D01*
X149935714Y-103022143D01*
X150407143Y-103922143D02*
X150407143Y-103322143D01*
X150407143Y-103022143D02*
X150364286Y-103065000D01*
X150407143Y-103107857D01*
X150450000Y-103065000D01*
X150407143Y-103022143D01*
X150407143Y-103107857D01*
X150835714Y-103322143D02*
X150835714Y-103922143D01*
X150835714Y-103407857D02*
X150878571Y-103365000D01*
X150964285Y-103322143D01*
X151092857Y-103322143D01*
X151178571Y-103365000D01*
X151221428Y-103450714D01*
X151221428Y-103922143D01*
X151992857Y-103879286D02*
X151907143Y-103922143D01*
X151735714Y-103922143D01*
X151650000Y-103879286D01*
X151607143Y-103793571D01*
X151607143Y-103450714D01*
X151650000Y-103365000D01*
X151735714Y-103322143D01*
X151907143Y-103322143D01*
X151992857Y-103365000D01*
X152035714Y-103450714D01*
X152035714Y-103536429D01*
X151607143Y-103622143D01*
X152464286Y-103879286D02*
X152464286Y-103922143D01*
X152421429Y-104007857D01*
X152378572Y-104050714D01*
X153535714Y-103836429D02*
X153578571Y-103879286D01*
X153535714Y-103922143D01*
X153492857Y-103879286D01*
X153535714Y-103836429D01*
X153535714Y-103922143D01*
X154007142Y-103922143D02*
X154178570Y-103922143D01*
X154264285Y-103879286D01*
X154307142Y-103836429D01*
X154392856Y-103707857D01*
X154435713Y-103536429D01*
X154435713Y-103193571D01*
X154392856Y-103107857D01*
X154349999Y-103065000D01*
X154264285Y-103022143D01*
X154092856Y-103022143D01*
X154007142Y-103065000D01*
X153964285Y-103107857D01*
X153921428Y-103193571D01*
X153921428Y-103407857D01*
X153964285Y-103493571D01*
X154007142Y-103536429D01*
X154092856Y-103579286D01*
X154264285Y-103579286D01*
X154349999Y-103536429D01*
X154392856Y-103493571D01*
X154435713Y-103407857D01*
X155507142Y-103922143D02*
X155507142Y-103322143D01*
X155507142Y-103407857D02*
X155549999Y-103365000D01*
X155635713Y-103322143D01*
X155764285Y-103322143D01*
X155849999Y-103365000D01*
X155892856Y-103450714D01*
X155892856Y-103922143D01*
X155892856Y-103450714D02*
X155935713Y-103365000D01*
X156021427Y-103322143D01*
X156149999Y-103322143D01*
X156235713Y-103365000D01*
X156278570Y-103450714D01*
X156278570Y-103922143D01*
X156707142Y-103922143D02*
X156707142Y-103322143D01*
X156707142Y-103407857D02*
X156749999Y-103365000D01*
X156835713Y-103322143D01*
X156964285Y-103322143D01*
X157049999Y-103365000D01*
X157092856Y-103450714D01*
X157092856Y-103922143D01*
X157092856Y-103450714D02*
X157135713Y-103365000D01*
X157221427Y-103322143D01*
X157349999Y-103322143D01*
X157435713Y-103365000D01*
X157478570Y-103450714D01*
X157478570Y-103922143D01*
X158978570Y-103879286D02*
X158892856Y-103922143D01*
X158721427Y-103922143D01*
X158635713Y-103879286D01*
X158592856Y-103836429D01*
X158549999Y-103750714D01*
X158549999Y-103493571D01*
X158592856Y-103407857D01*
X158635713Y-103365000D01*
X158721427Y-103322143D01*
X158892856Y-103322143D01*
X158978570Y-103365000D01*
X159492856Y-103922143D02*
X159407142Y-103879286D01*
X159364285Y-103793571D01*
X159364285Y-103022143D01*
X160178571Y-103879286D02*
X160092857Y-103922143D01*
X159921428Y-103922143D01*
X159835714Y-103879286D01*
X159792857Y-103793571D01*
X159792857Y-103450714D01*
X159835714Y-103365000D01*
X159921428Y-103322143D01*
X160092857Y-103322143D01*
X160178571Y-103365000D01*
X160221428Y-103450714D01*
X160221428Y-103536429D01*
X159792857Y-103622143D01*
X160992857Y-103922143D02*
X160992857Y-103450714D01*
X160950000Y-103365000D01*
X160864286Y-103322143D01*
X160692857Y-103322143D01*
X160607143Y-103365000D01*
X160992857Y-103879286D02*
X160907143Y-103922143D01*
X160692857Y-103922143D01*
X160607143Y-103879286D01*
X160564286Y-103793571D01*
X160564286Y-103707857D01*
X160607143Y-103622143D01*
X160692857Y-103579286D01*
X160907143Y-103579286D01*
X160992857Y-103536429D01*
X161421429Y-103922143D02*
X161421429Y-103322143D01*
X161421429Y-103493571D02*
X161464286Y-103407857D01*
X161507143Y-103365000D01*
X161592857Y-103322143D01*
X161678572Y-103322143D01*
X162364286Y-103922143D02*
X162364286Y-103450714D01*
X162321429Y-103365000D01*
X162235715Y-103322143D01*
X162064286Y-103322143D01*
X161978572Y-103365000D01*
X162364286Y-103879286D02*
X162278572Y-103922143D01*
X162064286Y-103922143D01*
X161978572Y-103879286D01*
X161935715Y-103793571D01*
X161935715Y-103707857D01*
X161978572Y-103622143D01*
X162064286Y-103579286D01*
X162278572Y-103579286D01*
X162364286Y-103536429D01*
X162792858Y-103322143D02*
X162792858Y-103922143D01*
X162792858Y-103407857D02*
X162835715Y-103365000D01*
X162921429Y-103322143D01*
X163050001Y-103322143D01*
X163135715Y-103365000D01*
X163178572Y-103450714D01*
X163178572Y-103922143D01*
X163992858Y-103879286D02*
X163907144Y-103922143D01*
X163735715Y-103922143D01*
X163650001Y-103879286D01*
X163607144Y-103836429D01*
X163564287Y-103750714D01*
X163564287Y-103493571D01*
X163607144Y-103407857D01*
X163650001Y-103365000D01*
X163735715Y-103322143D01*
X163907144Y-103322143D01*
X163992858Y-103365000D01*
X164721430Y-103879286D02*
X164635716Y-103922143D01*
X164464287Y-103922143D01*
X164378573Y-103879286D01*
X164335716Y-103793571D01*
X164335716Y-103450714D01*
X164378573Y-103365000D01*
X164464287Y-103322143D01*
X164635716Y-103322143D01*
X164721430Y-103365000D01*
X164764287Y-103450714D01*
X164764287Y-103536429D01*
X164335716Y-103622143D01*
X128935714Y-104807143D02*
X129278571Y-104807143D01*
X129064286Y-105407143D02*
X129064286Y-104635714D01*
X129107143Y-104550000D01*
X129192857Y-104507143D01*
X129278571Y-104507143D01*
X129578572Y-105407143D02*
X129578572Y-104807143D01*
X129578572Y-104978571D02*
X129621429Y-104892857D01*
X129664286Y-104850000D01*
X129750000Y-104807143D01*
X129835715Y-104807143D01*
X130521429Y-104807143D02*
X130521429Y-105407143D01*
X130307143Y-104464286D02*
X130092858Y-105107143D01*
X130650000Y-105107143D01*
X131164286Y-104507143D02*
X131250001Y-104507143D01*
X131335715Y-104550000D01*
X131378572Y-104592857D01*
X131421429Y-104678571D01*
X131464286Y-104850000D01*
X131464286Y-105064286D01*
X131421429Y-105235714D01*
X131378572Y-105321429D01*
X131335715Y-105364286D01*
X131250001Y-105407143D01*
X131164286Y-105407143D01*
X131078572Y-105364286D01*
X131035715Y-105321429D01*
X130992858Y-105235714D01*
X130950001Y-105064286D01*
X130950001Y-104850000D01*
X130992858Y-104678571D01*
X131035715Y-104592857D01*
X131078572Y-104550000D01*
X131164286Y-104507143D01*
X131978572Y-104892857D02*
X131892858Y-104850000D01*
X131850001Y-104807143D01*
X131807144Y-104721429D01*
X131807144Y-104678571D01*
X131850001Y-104592857D01*
X131892858Y-104550000D01*
X131978572Y-104507143D01*
X132150001Y-104507143D01*
X132235715Y-104550000D01*
X132278572Y-104592857D01*
X132321429Y-104678571D01*
X132321429Y-104721429D01*
X132278572Y-104807143D01*
X132235715Y-104850000D01*
X132150001Y-104892857D01*
X131978572Y-104892857D01*
X131892858Y-104935714D01*
X131850001Y-104978571D01*
X131807144Y-105064286D01*
X131807144Y-105235714D01*
X131850001Y-105321429D01*
X131892858Y-105364286D01*
X131978572Y-105407143D01*
X132150001Y-105407143D01*
X132235715Y-105364286D01*
X132278572Y-105321429D01*
X132321429Y-105235714D01*
X132321429Y-105064286D01*
X132278572Y-104978571D01*
X132235715Y-104935714D01*
X132150001Y-104892857D01*
X133650001Y-105750000D02*
X133607143Y-105707143D01*
X133521429Y-105578571D01*
X133478572Y-105492857D01*
X133435715Y-105364286D01*
X133392858Y-105150000D01*
X133392858Y-104978571D01*
X133435715Y-104764286D01*
X133478572Y-104635714D01*
X133521429Y-104550000D01*
X133607143Y-104421429D01*
X133650001Y-104378571D01*
X134335715Y-105364286D02*
X134250001Y-105407143D01*
X134078572Y-105407143D01*
X133992858Y-105364286D01*
X133950001Y-105278571D01*
X133950001Y-104935714D01*
X133992858Y-104850000D01*
X134078572Y-104807143D01*
X134250001Y-104807143D01*
X134335715Y-104850000D01*
X134378572Y-104935714D01*
X134378572Y-105021429D01*
X133950001Y-105107143D01*
X134764287Y-105407143D02*
X134764287Y-104807143D01*
X134764287Y-104978571D02*
X134807144Y-104892857D01*
X134850001Y-104850000D01*
X134935715Y-104807143D01*
X135021430Y-104807143D01*
X136007144Y-104935714D02*
X136692858Y-104935714D01*
X136692858Y-105192857D02*
X136007144Y-105192857D01*
X137721429Y-104507143D02*
X138278572Y-104507143D01*
X137978572Y-104850000D01*
X138107144Y-104850000D01*
X138192858Y-104892857D01*
X138235715Y-104935714D01*
X138278572Y-105021429D01*
X138278572Y-105235714D01*
X138235715Y-105321429D01*
X138192858Y-105364286D01*
X138107144Y-105407143D01*
X137850001Y-105407143D01*
X137764287Y-105364286D01*
X137721429Y-105321429D01*
X138664287Y-105321429D02*
X138707144Y-105364286D01*
X138664287Y-105407143D01*
X138621430Y-105364286D01*
X138664287Y-105321429D01*
X138664287Y-105407143D01*
X139478572Y-104507143D02*
X139307143Y-104507143D01*
X139221429Y-104550000D01*
X139178572Y-104592857D01*
X139092858Y-104721429D01*
X139050001Y-104892857D01*
X139050001Y-105235714D01*
X139092858Y-105321429D01*
X139135715Y-105364286D01*
X139221429Y-105407143D01*
X139392858Y-105407143D01*
X139478572Y-105364286D01*
X139521429Y-105321429D01*
X139564286Y-105235714D01*
X139564286Y-105021429D01*
X139521429Y-104935714D01*
X139478572Y-104892857D01*
X139392858Y-104850000D01*
X139221429Y-104850000D01*
X139135715Y-104892857D01*
X139092858Y-104935714D01*
X139050001Y-105021429D01*
X140335715Y-104507143D02*
X140164286Y-104507143D01*
X140078572Y-104550000D01*
X140035715Y-104592857D01*
X139950001Y-104721429D01*
X139907144Y-104892857D01*
X139907144Y-105235714D01*
X139950001Y-105321429D01*
X139992858Y-105364286D01*
X140078572Y-105407143D01*
X140250001Y-105407143D01*
X140335715Y-105364286D01*
X140378572Y-105321429D01*
X140421429Y-105235714D01*
X140421429Y-105021429D01*
X140378572Y-104935714D01*
X140335715Y-104892857D01*
X140250001Y-104850000D01*
X140078572Y-104850000D01*
X139992858Y-104892857D01*
X139950001Y-104935714D01*
X139907144Y-105021429D01*
X140721429Y-105750000D02*
X140764287Y-105707143D01*
X140850001Y-105578571D01*
X140892858Y-105492857D01*
X140935715Y-105364286D01*
X140978572Y-105150000D01*
X140978572Y-104978571D01*
X140935715Y-104764286D01*
X140892858Y-104635714D01*
X140850001Y-104550000D01*
X140764287Y-104421429D01*
X140721429Y-104378571D01*
X141450001Y-105364286D02*
X141450001Y-105407143D01*
X141407144Y-105492857D01*
X141364287Y-105535714D01*
X142907143Y-104507143D02*
X142735714Y-104507143D01*
X142650000Y-104550000D01*
X142607143Y-104592857D01*
X142521429Y-104721429D01*
X142478572Y-104892857D01*
X142478572Y-105235714D01*
X142521429Y-105321429D01*
X142564286Y-105364286D01*
X142650000Y-105407143D01*
X142821429Y-105407143D01*
X142907143Y-105364286D01*
X142950000Y-105321429D01*
X142992857Y-105235714D01*
X142992857Y-105021429D01*
X142950000Y-104935714D01*
X142907143Y-104892857D01*
X142821429Y-104850000D01*
X142650000Y-104850000D01*
X142564286Y-104892857D01*
X142521429Y-104935714D01*
X142478572Y-105021429D01*
X143378572Y-105321429D02*
X143421429Y-105364286D01*
X143378572Y-105407143D01*
X143335715Y-105364286D01*
X143378572Y-105321429D01*
X143378572Y-105407143D01*
X143721428Y-104507143D02*
X144321428Y-104507143D01*
X143935714Y-105407143D01*
X145350000Y-105407143D02*
X145350000Y-104807143D01*
X145350000Y-104892857D02*
X145392857Y-104850000D01*
X145478571Y-104807143D01*
X145607143Y-104807143D01*
X145692857Y-104850000D01*
X145735714Y-104935714D01*
X145735714Y-105407143D01*
X145735714Y-104935714D02*
X145778571Y-104850000D01*
X145864285Y-104807143D01*
X145992857Y-104807143D01*
X146078571Y-104850000D01*
X146121428Y-104935714D01*
X146121428Y-105407143D01*
X146550000Y-105407143D02*
X146550000Y-104807143D01*
X146550000Y-104507143D02*
X146507143Y-104550000D01*
X146550000Y-104592857D01*
X146592857Y-104550000D01*
X146550000Y-104507143D01*
X146550000Y-104592857D01*
X147107142Y-105407143D02*
X147021428Y-105364286D01*
X146978571Y-105278571D01*
X146978571Y-104507143D01*
X148521428Y-105407143D02*
X148521428Y-104935714D01*
X148478571Y-104850000D01*
X148392857Y-104807143D01*
X148221428Y-104807143D01*
X148135714Y-104850000D01*
X148521428Y-105364286D02*
X148435714Y-105407143D01*
X148221428Y-105407143D01*
X148135714Y-105364286D01*
X148092857Y-105278571D01*
X148092857Y-105192857D01*
X148135714Y-105107143D01*
X148221428Y-105064286D01*
X148435714Y-105064286D01*
X148521428Y-105021429D01*
X148950000Y-104807143D02*
X148950000Y-105407143D01*
X148950000Y-104892857D02*
X148992857Y-104850000D01*
X149078571Y-104807143D01*
X149207143Y-104807143D01*
X149292857Y-104850000D01*
X149335714Y-104935714D01*
X149335714Y-105407143D01*
X150150000Y-105407143D02*
X150150000Y-104507143D01*
X150150000Y-105364286D02*
X150064286Y-105407143D01*
X149892857Y-105407143D01*
X149807143Y-105364286D01*
X149764286Y-105321429D01*
X149721429Y-105235714D01*
X149721429Y-104978571D01*
X149764286Y-104892857D01*
X149807143Y-104850000D01*
X149892857Y-104807143D01*
X150064286Y-104807143D01*
X150150000Y-104850000D01*
X151650000Y-104807143D02*
X151650000Y-105407143D01*
X151435714Y-104464286D02*
X151221429Y-105107143D01*
X151778571Y-105107143D01*
X152035714Y-104507143D02*
X152635714Y-104507143D01*
X152250000Y-105407143D01*
X153664286Y-105407143D02*
X153664286Y-104807143D01*
X153664286Y-104892857D02*
X153707143Y-104850000D01*
X153792857Y-104807143D01*
X153921429Y-104807143D01*
X154007143Y-104850000D01*
X154050000Y-104935714D01*
X154050000Y-105407143D01*
X154050000Y-104935714D02*
X154092857Y-104850000D01*
X154178571Y-104807143D01*
X154307143Y-104807143D01*
X154392857Y-104850000D01*
X154435714Y-104935714D01*
X154435714Y-105407143D01*
X154864286Y-105407143D02*
X154864286Y-104807143D01*
X154864286Y-104507143D02*
X154821429Y-104550000D01*
X154864286Y-104592857D01*
X154907143Y-104550000D01*
X154864286Y-104507143D01*
X154864286Y-104592857D01*
X155421428Y-105407143D02*
X155335714Y-105364286D01*
X155292857Y-105278571D01*
X155292857Y-104507143D01*
X156835714Y-105364286D02*
X156750000Y-105407143D01*
X156578571Y-105407143D01*
X156492857Y-105364286D01*
X156450000Y-105321429D01*
X156407143Y-105235714D01*
X156407143Y-104978571D01*
X156450000Y-104892857D01*
X156492857Y-104850000D01*
X156578571Y-104807143D01*
X156750000Y-104807143D01*
X156835714Y-104850000D01*
X157350000Y-105407143D02*
X157264286Y-105364286D01*
X157221429Y-105321429D01*
X157178572Y-105235714D01*
X157178572Y-104978571D01*
X157221429Y-104892857D01*
X157264286Y-104850000D01*
X157350000Y-104807143D01*
X157478572Y-104807143D01*
X157564286Y-104850000D01*
X157607143Y-104892857D01*
X157650000Y-104978571D01*
X157650000Y-105235714D01*
X157607143Y-105321429D01*
X157564286Y-105364286D01*
X157478572Y-105407143D01*
X157350000Y-105407143D01*
X158035715Y-105407143D02*
X158035715Y-104807143D01*
X158035715Y-104978571D02*
X158078572Y-104892857D01*
X158121429Y-104850000D01*
X158207143Y-104807143D01*
X158292858Y-104807143D01*
X158935715Y-105364286D02*
X158850001Y-105407143D01*
X158678572Y-105407143D01*
X158592858Y-105364286D01*
X158550001Y-105278571D01*
X158550001Y-104935714D01*
X158592858Y-104850000D01*
X158678572Y-104807143D01*
X158850001Y-104807143D01*
X158935715Y-104850000D01*
X158978572Y-104935714D01*
X158978572Y-105021429D01*
X158550001Y-105107143D01*
X130564285Y-106892143D02*
X130564285Y-105992143D01*
X130949999Y-106892143D02*
X130949999Y-106420714D01*
X130907142Y-106335000D01*
X130821428Y-106292143D01*
X130692856Y-106292143D01*
X130607142Y-106335000D01*
X130564285Y-106377857D01*
X131249999Y-106292143D02*
X131592856Y-106292143D01*
X131378571Y-105992143D02*
X131378571Y-106763571D01*
X131421428Y-106849286D01*
X131507142Y-106892143D01*
X131592856Y-106892143D01*
X131764285Y-106292143D02*
X132107142Y-106292143D01*
X131892857Y-105992143D02*
X131892857Y-106763571D01*
X131935714Y-106849286D01*
X132021428Y-106892143D01*
X132107142Y-106892143D01*
X132407143Y-106292143D02*
X132407143Y-107192143D01*
X132407143Y-106335000D02*
X132492857Y-106292143D01*
X132664286Y-106292143D01*
X132750000Y-106335000D01*
X132792857Y-106377857D01*
X132835714Y-106463571D01*
X132835714Y-106720714D01*
X132792857Y-106806429D01*
X132750000Y-106849286D01*
X132664286Y-106892143D01*
X132492857Y-106892143D01*
X132407143Y-106849286D01*
X133178572Y-106849286D02*
X133264286Y-106892143D01*
X133435714Y-106892143D01*
X133521429Y-106849286D01*
X133564286Y-106763571D01*
X133564286Y-106720714D01*
X133521429Y-106635000D01*
X133435714Y-106592143D01*
X133307143Y-106592143D01*
X133221429Y-106549286D01*
X133178572Y-106463571D01*
X133178572Y-106420714D01*
X133221429Y-106335000D01*
X133307143Y-106292143D01*
X133435714Y-106292143D01*
X133521429Y-106335000D01*
X133950000Y-106806429D02*
X133992857Y-106849286D01*
X133950000Y-106892143D01*
X133907143Y-106849286D01*
X133950000Y-106806429D01*
X133950000Y-106892143D01*
X133950000Y-106335000D02*
X133992857Y-106377857D01*
X133950000Y-106420714D01*
X133907143Y-106377857D01*
X133950000Y-106335000D01*
X133950000Y-106420714D01*
X135021428Y-105949286D02*
X134249999Y-107106429D01*
X135964285Y-105949286D02*
X135192856Y-107106429D01*
X136649999Y-106292143D02*
X136649999Y-107020714D01*
X136607142Y-107106429D01*
X136564285Y-107149286D01*
X136478570Y-107192143D01*
X136349999Y-107192143D01*
X136264285Y-107149286D01*
X136649999Y-106849286D02*
X136564285Y-106892143D01*
X136392856Y-106892143D01*
X136307142Y-106849286D01*
X136264285Y-106806429D01*
X136221428Y-106720714D01*
X136221428Y-106463571D01*
X136264285Y-106377857D01*
X136307142Y-106335000D01*
X136392856Y-106292143D01*
X136564285Y-106292143D01*
X136649999Y-106335000D01*
X137078571Y-106892143D02*
X137078571Y-106292143D01*
X137078571Y-105992143D02*
X137035714Y-106035000D01*
X137078571Y-106077857D01*
X137121428Y-106035000D01*
X137078571Y-105992143D01*
X137078571Y-106077857D01*
X137378570Y-106292143D02*
X137721427Y-106292143D01*
X137507142Y-105992143D02*
X137507142Y-106763571D01*
X137549999Y-106849286D01*
X137635713Y-106892143D01*
X137721427Y-106892143D01*
X138021428Y-106892143D02*
X138021428Y-105992143D01*
X138407142Y-106892143D02*
X138407142Y-106420714D01*
X138364285Y-106335000D01*
X138278571Y-106292143D01*
X138149999Y-106292143D01*
X138064285Y-106335000D01*
X138021428Y-106377857D01*
X139221428Y-106292143D02*
X139221428Y-106892143D01*
X138835714Y-106292143D02*
X138835714Y-106763571D01*
X138878571Y-106849286D01*
X138964285Y-106892143D01*
X139092857Y-106892143D01*
X139178571Y-106849286D01*
X139221428Y-106806429D01*
X139650000Y-106892143D02*
X139650000Y-105992143D01*
X139650000Y-106335000D02*
X139735714Y-106292143D01*
X139907143Y-106292143D01*
X139992857Y-106335000D01*
X140035714Y-106377857D01*
X140078571Y-106463571D01*
X140078571Y-106720714D01*
X140035714Y-106806429D01*
X139992857Y-106849286D01*
X139907143Y-106892143D01*
X139735714Y-106892143D01*
X139650000Y-106849286D01*
X140464286Y-106806429D02*
X140507143Y-106849286D01*
X140464286Y-106892143D01*
X140421429Y-106849286D01*
X140464286Y-106806429D01*
X140464286Y-106892143D01*
X141278571Y-106849286D02*
X141192857Y-106892143D01*
X141021428Y-106892143D01*
X140935714Y-106849286D01*
X140892857Y-106806429D01*
X140850000Y-106720714D01*
X140850000Y-106463571D01*
X140892857Y-106377857D01*
X140935714Y-106335000D01*
X141021428Y-106292143D01*
X141192857Y-106292143D01*
X141278571Y-106335000D01*
X141792857Y-106892143D02*
X141707143Y-106849286D01*
X141664286Y-106806429D01*
X141621429Y-106720714D01*
X141621429Y-106463571D01*
X141664286Y-106377857D01*
X141707143Y-106335000D01*
X141792857Y-106292143D01*
X141921429Y-106292143D01*
X142007143Y-106335000D01*
X142050000Y-106377857D01*
X142092857Y-106463571D01*
X142092857Y-106720714D01*
X142050000Y-106806429D01*
X142007143Y-106849286D01*
X141921429Y-106892143D01*
X141792857Y-106892143D01*
X142478572Y-106892143D02*
X142478572Y-106292143D01*
X142478572Y-106377857D02*
X142521429Y-106335000D01*
X142607143Y-106292143D01*
X142735715Y-106292143D01*
X142821429Y-106335000D01*
X142864286Y-106420714D01*
X142864286Y-106892143D01*
X142864286Y-106420714D02*
X142907143Y-106335000D01*
X142992857Y-106292143D01*
X143121429Y-106292143D01*
X143207143Y-106335000D01*
X143250000Y-106420714D01*
X143250000Y-106892143D01*
X144321429Y-105949286D02*
X143550000Y-107106429D01*
X144750000Y-106892143D02*
X144664286Y-106849286D01*
X144621429Y-106763571D01*
X144621429Y-105992143D01*
X145221429Y-106892143D02*
X145135715Y-106849286D01*
X145092858Y-106806429D01*
X145050001Y-106720714D01*
X145050001Y-106463571D01*
X145092858Y-106377857D01*
X145135715Y-106335000D01*
X145221429Y-106292143D01*
X145350001Y-106292143D01*
X145435715Y-106335000D01*
X145478572Y-106377857D01*
X145521429Y-106463571D01*
X145521429Y-106720714D01*
X145478572Y-106806429D01*
X145435715Y-106849286D01*
X145350001Y-106892143D01*
X145221429Y-106892143D01*
X145821429Y-106892143D02*
X146292858Y-106292143D01*
X145821429Y-106292143D02*
X146292858Y-106892143D01*
X146764286Y-106892143D02*
X146678572Y-106849286D01*
X146635715Y-106806429D01*
X146592858Y-106720714D01*
X146592858Y-106463571D01*
X146635715Y-106377857D01*
X146678572Y-106335000D01*
X146764286Y-106292143D01*
X146892858Y-106292143D01*
X146978572Y-106335000D01*
X147021429Y-106377857D01*
X147064286Y-106463571D01*
X147064286Y-106720714D01*
X147021429Y-106806429D01*
X146978572Y-106849286D01*
X146892858Y-106892143D01*
X146764286Y-106892143D01*
X147835715Y-106892143D02*
X147835715Y-105992143D01*
X147835715Y-106849286D02*
X147750001Y-106892143D01*
X147578572Y-106892143D01*
X147492858Y-106849286D01*
X147450001Y-106806429D01*
X147407144Y-106720714D01*
X147407144Y-106463571D01*
X147450001Y-106377857D01*
X147492858Y-106335000D01*
X147578572Y-106292143D01*
X147750001Y-106292143D01*
X147835715Y-106335000D01*
X148607144Y-106849286D02*
X148521430Y-106892143D01*
X148350001Y-106892143D01*
X148264287Y-106849286D01*
X148221430Y-106763571D01*
X148221430Y-106420714D01*
X148264287Y-106335000D01*
X148350001Y-106292143D01*
X148521430Y-106292143D01*
X148607144Y-106335000D01*
X148650001Y-106420714D01*
X148650001Y-106506429D01*
X148221430Y-106592143D01*
X148992859Y-106849286D02*
X149078573Y-106892143D01*
X149250001Y-106892143D01*
X149335716Y-106849286D01*
X149378573Y-106763571D01*
X149378573Y-106720714D01*
X149335716Y-106635000D01*
X149250001Y-106592143D01*
X149121430Y-106592143D01*
X149035716Y-106549286D01*
X148992859Y-106463571D01*
X148992859Y-106420714D01*
X149035716Y-106335000D01*
X149121430Y-106292143D01*
X149250001Y-106292143D01*
X149335716Y-106335000D01*
X150407144Y-105949286D02*
X149635715Y-107106429D01*
X151050001Y-106849286D02*
X150964287Y-106892143D01*
X150792858Y-106892143D01*
X150707144Y-106849286D01*
X150664287Y-106763571D01*
X150664287Y-106420714D01*
X150707144Y-106335000D01*
X150792858Y-106292143D01*
X150964287Y-106292143D01*
X151050001Y-106335000D01*
X151092858Y-106420714D01*
X151092858Y-106506429D01*
X150664287Y-106592143D01*
X151478573Y-106892143D02*
X151478573Y-106292143D01*
X151478573Y-106377857D02*
X151521430Y-106335000D01*
X151607144Y-106292143D01*
X151735716Y-106292143D01*
X151821430Y-106335000D01*
X151864287Y-106420714D01*
X151864287Y-106892143D01*
X151864287Y-106420714D02*
X151907144Y-106335000D01*
X151992858Y-106292143D01*
X152121430Y-106292143D01*
X152207144Y-106335000D01*
X152250001Y-106420714D01*
X152250001Y-106892143D01*
X152464287Y-106977857D02*
X153150001Y-106977857D01*
X153364287Y-106292143D02*
X153364287Y-107192143D01*
X153364287Y-106335000D02*
X153450001Y-106292143D01*
X153621430Y-106292143D01*
X153707144Y-106335000D01*
X153750001Y-106377857D01*
X153792858Y-106463571D01*
X153792858Y-106720714D01*
X153750001Y-106806429D01*
X153707144Y-106849286D01*
X153621430Y-106892143D01*
X153450001Y-106892143D01*
X153364287Y-106849286D01*
X154178573Y-106892143D02*
X154178573Y-106292143D01*
X154178573Y-106463571D02*
X154221430Y-106377857D01*
X154264287Y-106335000D01*
X154350001Y-106292143D01*
X154435716Y-106292143D01*
X154864287Y-106892143D02*
X154778573Y-106849286D01*
X154735716Y-106806429D01*
X154692859Y-106720714D01*
X154692859Y-106463571D01*
X154735716Y-106377857D01*
X154778573Y-106335000D01*
X154864287Y-106292143D01*
X154992859Y-106292143D01*
X155078573Y-106335000D01*
X155121430Y-106377857D01*
X155164287Y-106463571D01*
X155164287Y-106720714D01*
X155121430Y-106806429D01*
X155078573Y-106849286D01*
X154992859Y-106892143D01*
X154864287Y-106892143D01*
X155550002Y-106892143D02*
X155550002Y-105992143D01*
X155550002Y-106335000D02*
X155635716Y-106292143D01*
X155807145Y-106292143D01*
X155892859Y-106335000D01*
X155935716Y-106377857D01*
X155978573Y-106463571D01*
X155978573Y-106720714D01*
X155935716Y-106806429D01*
X155892859Y-106849286D01*
X155807145Y-106892143D01*
X155635716Y-106892143D01*
X155550002Y-106849286D01*
X156707145Y-106849286D02*
X156621431Y-106892143D01*
X156450002Y-106892143D01*
X156364288Y-106849286D01*
X156321431Y-106763571D01*
X156321431Y-106420714D01*
X156364288Y-106335000D01*
X156450002Y-106292143D01*
X156621431Y-106292143D01*
X156707145Y-106335000D01*
X156750002Y-106420714D01*
X156750002Y-106506429D01*
X156321431Y-106592143D01*
X157092860Y-106849286D02*
X157178574Y-106892143D01*
X157350002Y-106892143D01*
X157435717Y-106849286D01*
X157478574Y-106763571D01*
X157478574Y-106720714D01*
X157435717Y-106635000D01*
X157350002Y-106592143D01*
X157221431Y-106592143D01*
X157135717Y-106549286D01*
X157092860Y-106463571D01*
X157092860Y-106420714D01*
X157135717Y-106335000D01*
X157221431Y-106292143D01*
X157350002Y-106292143D01*
X157435717Y-106335000D01*
D12*
X110936000Y-108810000D02*
X110936000Y-101190000D01*
X110682000Y-108810000D02*
X111190000Y-108810000D01*
X110682000Y-101190000D02*
X110682000Y-108810000D01*
X110682000Y-101190000D02*
X111190000Y-101190000D01*
X118810000Y-108810000D02*
X111190000Y-108810000D01*
X118810000Y-101190000D02*
X118810000Y-108810000D01*
X111190000Y-101190000D02*
X118810000Y-101190000D01*
X179064000Y-101190000D02*
X179064000Y-108810000D01*
X179318000Y-101190000D02*
X178810000Y-101190000D01*
X179318000Y-108810000D02*
X179318000Y-101190000D01*
X179318000Y-108810000D02*
X178810000Y-108810000D01*
X171190000Y-101190000D02*
X178810000Y-101190000D01*
X171190000Y-108810000D02*
X171190000Y-101190000D01*
X178810000Y-108810000D02*
X171190000Y-108810000D01*
D13*
X104998286Y-100999452D02*
X104998286Y-101000262D01*
X104998334Y-101000357D01*
X104998381Y-101000405D01*
X104998477Y-101000452D01*
X104998667Y-101000452D01*
X104998762Y-101000405D01*
X104998810Y-101000357D01*
X104998858Y-101000262D01*
X104998858Y-100999452D01*
X104999858Y-101000452D02*
X104999286Y-101000452D01*
X104999572Y-101000452D02*
X104999572Y-100999452D01*
X104999477Y-100999595D01*
X104999382Y-100999690D01*
X104999286Y-100999738D01*
X105000477Y-100999452D02*
X105000572Y-100999452D01*
X105000667Y-100999500D01*
X105000715Y-100999548D01*
X105000762Y-100999643D01*
X105000810Y-100999833D01*
X105000810Y-101000071D01*
X105000762Y-101000262D01*
X105000715Y-101000357D01*
X105000667Y-101000405D01*
X105000572Y-101000452D01*
X105000477Y-101000452D01*
X105000381Y-101000405D01*
X105000334Y-101000357D01*
X105000286Y-101000262D01*
X105000238Y-101000071D01*
X105000238Y-100999833D01*
X105000286Y-100999643D01*
X105000334Y-100999548D01*
X105000381Y-100999500D01*
X105000477Y-100999452D01*
X105001762Y-101000452D02*
X105001190Y-101000452D01*
X105001476Y-101000452D02*
X105001476Y-100999452D01*
X105001381Y-100999595D01*
X105001286Y-100999690D01*
X105001190Y-100999738D01*
X184998286Y-108999452D02*
X184998286Y-109000262D01*
X184998334Y-109000357D01*
X184998381Y-109000405D01*
X184998477Y-109000452D01*
X184998667Y-109000452D01*
X184998762Y-109000405D01*
X184998810Y-109000357D01*
X184998858Y-109000262D01*
X184998858Y-108999452D01*
X184999858Y-109000452D02*
X184999286Y-109000452D01*
X184999572Y-109000452D02*
X184999572Y-108999452D01*
X184999477Y-108999595D01*
X184999382Y-108999690D01*
X184999286Y-108999738D01*
X185000477Y-108999452D02*
X185000572Y-108999452D01*
X185000667Y-108999500D01*
X185000715Y-108999548D01*
X185000762Y-108999643D01*
X185000810Y-108999833D01*
X185000810Y-109000071D01*
X185000762Y-109000262D01*
X185000715Y-109000357D01*
X185000667Y-109000405D01*
X185000572Y-109000452D01*
X185000477Y-109000452D01*
X185000381Y-109000405D01*
X185000334Y-109000357D01*
X185000286Y-109000262D01*
X185000238Y-109000071D01*
X185000238Y-108999833D01*
X185000286Y-108999643D01*
X185000334Y-108999548D01*
X185000381Y-108999500D01*
X185000477Y-108999452D01*
X185001190Y-108999548D02*
X185001238Y-108999500D01*
X185001333Y-108999452D01*
X185001571Y-108999452D01*
X185001667Y-108999500D01*
X185001714Y-108999548D01*
X185001762Y-108999643D01*
X185001762Y-108999738D01*
X185001714Y-108999881D01*
X185001143Y-109000452D01*
X185001762Y-109000452D01*
M02*
