M48
;DRILL file {KiCad 4.0.2-stable} date Mon May 16 23:46:36 2016
;FORMAT={3:3/ absolute / metric / keep zeros}
FMAT,2
METRIC,TZ
T1C0.400
T2C1.500
%
G90
G05
M71
T1
X120000Y-102500
X120000Y-107500
X122500Y-102500
X122500Y-107500
X125000Y-102500
X125000Y-107500
X127500Y-102500
X127500Y-107500
X130000Y-102500
X130000Y-107500
X132500Y-102500
X132500Y-107500
X135000Y-102500
X135000Y-107500
X137500Y-102500
X137500Y-107500
X140000Y-102500
X140000Y-107500
X142500Y-102500
X142500Y-107500
X145000Y-102500
X145000Y-107500
X147500Y-102500
X147500Y-107500
X150000Y-102500
X150000Y-107500
X152500Y-102500
X152500Y-107500
X155000Y-102500
X155000Y-107500
X157500Y-102500
X157500Y-107500
X160000Y-102500
X160000Y-107500
X162500Y-102500
X162500Y-107500
X165000Y-102500
X165000Y-107500
X167500Y-102500
X167500Y-107500
X170000Y-102500
X170000Y-107500
T2
X112460Y-102460
X112460Y-107540
X115000Y-105000
X117540Y-102460
X117540Y-107540
X172460Y-102460
X172460Y-107540
X175000Y-105000
X177540Y-102460
X177540Y-107540
T0
M30
