M48
;DRILL file {KiCad 4.0.2-stable} date Thu May 19 00:56:03 2016
;FORMAT={3:3/ absolute / metric / keep zeros}
FMAT,2
METRIC,TZ
T1C0.400
T2C0.650
T3C0.700
T4C1.016
T5C1.500
%
G90
G05
M71
T1
X102500Y-079000
X112000Y-073500
X112000Y-075000
X114000Y-088000
X114070Y-082930
X114070Y-084000
X114070Y-085000
X114070Y-086000
X120000Y-080500
X120000Y-082000
X120500Y-079000
X125000Y-073000
T4
X118500Y-073500
X121040Y-073500
T5
X099960Y-082460
X099960Y-087540
X102500Y-085000
X105040Y-082460
X105040Y-087540
X123460Y-082460
X123460Y-087540
X126000Y-085000
X128540Y-082460
X128540Y-087540
T2
X102075Y-076425G85X102075Y-076825
G05
X106925Y-076425G85X106925Y-076825
G05
T3
X101775Y-073375G85X101775Y-073875
G05
X107225Y-073375G85X107225Y-073875
G05
T0
M30
