G04 #@! TF.FileFunction,Copper,L2,Bot,Signal*
%FSLAX46Y46*%
G04 Gerber Fmt 4.6, Leading zero omitted, Abs format (unit mm)*
G04 Created by KiCad (PCBNEW 4.0.2-stable) date Thu May 19 00:56:02 2016*
%MOMM*%
G01*
G04 APERTURE LIST*
%ADD10C,0.100000*%
%ADD11R,2.032000X2.032000*%
%ADD12O,2.032000X2.032000*%
%ADD13O,1.100000X1.500000*%
%ADD14O,1.200000X1.700000*%
%ADD15C,1.800000*%
%ADD16C,0.600000*%
%ADD17C,0.254000*%
G04 APERTURE END LIST*
D10*
D11*
X121040000Y-73500000D03*
D12*
X118500000Y-73500000D03*
D13*
X106925000Y-76625000D03*
X102075000Y-76625000D03*
D14*
X107225000Y-73625000D03*
X101775000Y-73625000D03*
D15*
X102500000Y-85000000D03*
X99960000Y-87540000D03*
X99960000Y-82460000D03*
X105040000Y-82460000D03*
X105040000Y-87540000D03*
X126000000Y-85000000D03*
X128540000Y-82460000D03*
X128540000Y-87540000D03*
X123460000Y-87540000D03*
X123460000Y-82460000D03*
D16*
X114070000Y-86000000D03*
X114070000Y-84000000D03*
X112000000Y-75000000D03*
X112000000Y-73500000D03*
X102500000Y-79000000D03*
X125000000Y-73000000D03*
X120000000Y-82000000D03*
X120000000Y-80500000D03*
X120500000Y-79000000D03*
X114070000Y-85000000D03*
X114070000Y-82930000D03*
X114000000Y-88000000D03*
D17*
G36*
X100901723Y-72472630D02*
X100634009Y-72873293D01*
X100540000Y-73345907D01*
X100540000Y-73904093D01*
X100634009Y-74376707D01*
X100901723Y-74777370D01*
X101302386Y-75045084D01*
X101775000Y-75139093D01*
X102247614Y-75045084D01*
X102648277Y-74777370D01*
X102915991Y-74376707D01*
X103010000Y-73904093D01*
X103010000Y-73345907D01*
X102915991Y-72873293D01*
X102648277Y-72472630D01*
X102255223Y-72210000D01*
X106744777Y-72210000D01*
X106351723Y-72472630D01*
X106084009Y-72873293D01*
X105990000Y-73345907D01*
X105990000Y-73904093D01*
X106084009Y-74376707D01*
X106351723Y-74777370D01*
X106752386Y-75045084D01*
X107225000Y-75139093D01*
X107697614Y-75045084D01*
X108098277Y-74777370D01*
X108365991Y-74376707D01*
X108460000Y-73904093D01*
X108460000Y-73345907D01*
X108365991Y-72873293D01*
X108098277Y-72472630D01*
X107705223Y-72210000D01*
X117467594Y-72210000D01*
X117332567Y-72300222D01*
X116974675Y-72835845D01*
X116849000Y-73467655D01*
X116849000Y-73532345D01*
X116974675Y-74164155D01*
X117332567Y-74699778D01*
X117868190Y-75057670D01*
X118500000Y-75183345D01*
X119131810Y-75057670D01*
X119667433Y-74699778D01*
X120025325Y-74164155D01*
X120151000Y-73532345D01*
X120151000Y-73467655D01*
X120025325Y-72835845D01*
X119667433Y-72300222D01*
X119532406Y-72210000D01*
X129290000Y-72210000D01*
X129290000Y-91290000D01*
X99210000Y-91290000D01*
X99210000Y-85303991D01*
X100964735Y-85303991D01*
X101197932Y-85868371D01*
X101629357Y-86300551D01*
X102193330Y-86534733D01*
X102803991Y-86535265D01*
X103368371Y-86302068D01*
X103800551Y-85870643D01*
X104034733Y-85306670D01*
X104034735Y-85303991D01*
X124464735Y-85303991D01*
X124697932Y-85868371D01*
X125129357Y-86300551D01*
X125693330Y-86534733D01*
X126303991Y-86535265D01*
X126868371Y-86302068D01*
X127300551Y-85870643D01*
X127534733Y-85306670D01*
X127535265Y-84696009D01*
X127302068Y-84131629D01*
X126870643Y-83699449D01*
X126306670Y-83465267D01*
X125696009Y-83464735D01*
X125131629Y-83697932D01*
X124699449Y-84129357D01*
X124465267Y-84693330D01*
X124464735Y-85303991D01*
X104034735Y-85303991D01*
X104035265Y-84696009D01*
X103802068Y-84131629D01*
X103370643Y-83699449D01*
X102806670Y-83465267D01*
X102196009Y-83464735D01*
X101631629Y-83697932D01*
X101199449Y-84129357D01*
X100965267Y-84693330D01*
X100964735Y-85303991D01*
X99210000Y-85303991D01*
X99210000Y-76397866D01*
X100890000Y-76397866D01*
X100890000Y-76852134D01*
X100980203Y-77305614D01*
X101237078Y-77690056D01*
X101621520Y-77946931D01*
X102075000Y-78037134D01*
X102528480Y-77946931D01*
X102912922Y-77690056D01*
X103169797Y-77305614D01*
X103260000Y-76852134D01*
X103260000Y-76397866D01*
X105740000Y-76397866D01*
X105740000Y-76852134D01*
X105830203Y-77305614D01*
X106087078Y-77690056D01*
X106471520Y-77946931D01*
X106925000Y-78037134D01*
X107378480Y-77946931D01*
X107762922Y-77690056D01*
X108019797Y-77305614D01*
X108110000Y-76852134D01*
X108110000Y-76397866D01*
X108019797Y-75944386D01*
X107762922Y-75559944D01*
X107378480Y-75303069D01*
X106925000Y-75212866D01*
X106471520Y-75303069D01*
X106087078Y-75559944D01*
X105830203Y-75944386D01*
X105740000Y-76397866D01*
X103260000Y-76397866D01*
X103169797Y-75944386D01*
X102912922Y-75559944D01*
X102528480Y-75303069D01*
X102075000Y-75212866D01*
X101621520Y-75303069D01*
X101237078Y-75559944D01*
X100980203Y-75944386D01*
X100890000Y-76397866D01*
X99210000Y-76397866D01*
X99210000Y-72210000D01*
X101294777Y-72210000D01*
X100901723Y-72472630D01*
X100901723Y-72472630D01*
G37*
X100901723Y-72472630D02*
X100634009Y-72873293D01*
X100540000Y-73345907D01*
X100540000Y-73904093D01*
X100634009Y-74376707D01*
X100901723Y-74777370D01*
X101302386Y-75045084D01*
X101775000Y-75139093D01*
X102247614Y-75045084D01*
X102648277Y-74777370D01*
X102915991Y-74376707D01*
X103010000Y-73904093D01*
X103010000Y-73345907D01*
X102915991Y-72873293D01*
X102648277Y-72472630D01*
X102255223Y-72210000D01*
X106744777Y-72210000D01*
X106351723Y-72472630D01*
X106084009Y-72873293D01*
X105990000Y-73345907D01*
X105990000Y-73904093D01*
X106084009Y-74376707D01*
X106351723Y-74777370D01*
X106752386Y-75045084D01*
X107225000Y-75139093D01*
X107697614Y-75045084D01*
X108098277Y-74777370D01*
X108365991Y-74376707D01*
X108460000Y-73904093D01*
X108460000Y-73345907D01*
X108365991Y-72873293D01*
X108098277Y-72472630D01*
X107705223Y-72210000D01*
X117467594Y-72210000D01*
X117332567Y-72300222D01*
X116974675Y-72835845D01*
X116849000Y-73467655D01*
X116849000Y-73532345D01*
X116974675Y-74164155D01*
X117332567Y-74699778D01*
X117868190Y-75057670D01*
X118500000Y-75183345D01*
X119131810Y-75057670D01*
X119667433Y-74699778D01*
X120025325Y-74164155D01*
X120151000Y-73532345D01*
X120151000Y-73467655D01*
X120025325Y-72835845D01*
X119667433Y-72300222D01*
X119532406Y-72210000D01*
X129290000Y-72210000D01*
X129290000Y-91290000D01*
X99210000Y-91290000D01*
X99210000Y-85303991D01*
X100964735Y-85303991D01*
X101197932Y-85868371D01*
X101629357Y-86300551D01*
X102193330Y-86534733D01*
X102803991Y-86535265D01*
X103368371Y-86302068D01*
X103800551Y-85870643D01*
X104034733Y-85306670D01*
X104034735Y-85303991D01*
X124464735Y-85303991D01*
X124697932Y-85868371D01*
X125129357Y-86300551D01*
X125693330Y-86534733D01*
X126303991Y-86535265D01*
X126868371Y-86302068D01*
X127300551Y-85870643D01*
X127534733Y-85306670D01*
X127535265Y-84696009D01*
X127302068Y-84131629D01*
X126870643Y-83699449D01*
X126306670Y-83465267D01*
X125696009Y-83464735D01*
X125131629Y-83697932D01*
X124699449Y-84129357D01*
X124465267Y-84693330D01*
X124464735Y-85303991D01*
X104034735Y-85303991D01*
X104035265Y-84696009D01*
X103802068Y-84131629D01*
X103370643Y-83699449D01*
X102806670Y-83465267D01*
X102196009Y-83464735D01*
X101631629Y-83697932D01*
X101199449Y-84129357D01*
X100965267Y-84693330D01*
X100964735Y-85303991D01*
X99210000Y-85303991D01*
X99210000Y-76397866D01*
X100890000Y-76397866D01*
X100890000Y-76852134D01*
X100980203Y-77305614D01*
X101237078Y-77690056D01*
X101621520Y-77946931D01*
X102075000Y-78037134D01*
X102528480Y-77946931D01*
X102912922Y-77690056D01*
X103169797Y-77305614D01*
X103260000Y-76852134D01*
X103260000Y-76397866D01*
X105740000Y-76397866D01*
X105740000Y-76852134D01*
X105830203Y-77305614D01*
X106087078Y-77690056D01*
X106471520Y-77946931D01*
X106925000Y-78037134D01*
X107378480Y-77946931D01*
X107762922Y-77690056D01*
X108019797Y-77305614D01*
X108110000Y-76852134D01*
X108110000Y-76397866D01*
X108019797Y-75944386D01*
X107762922Y-75559944D01*
X107378480Y-75303069D01*
X106925000Y-75212866D01*
X106471520Y-75303069D01*
X106087078Y-75559944D01*
X105830203Y-75944386D01*
X105740000Y-76397866D01*
X103260000Y-76397866D01*
X103169797Y-75944386D01*
X102912922Y-75559944D01*
X102528480Y-75303069D01*
X102075000Y-75212866D01*
X101621520Y-75303069D01*
X101237078Y-75559944D01*
X100980203Y-75944386D01*
X100890000Y-76397866D01*
X99210000Y-76397866D01*
X99210000Y-72210000D01*
X101294777Y-72210000D01*
X100901723Y-72472630D01*
M02*
