G04 #@! TF.FileFunction,Legend,Top*
%FSLAX46Y46*%
G04 Gerber Fmt 4.6, Leading zero omitted, Abs format (unit mm)*
G04 Created by KiCad (PCBNEW 4.0.2-stable) date Thu May 19 00:56:02 2016*
%MOMM*%
G01*
G04 APERTURE LIST*
%ADD10C,0.100000*%
%ADD11C,0.300000*%
%ADD12C,0.150000*%
%ADD13C,0.200000*%
G04 APERTURE END LIST*
D10*
D11*
X117742858Y-76342857D02*
X117171429Y-76342857D01*
X117114286Y-76914286D01*
X117171429Y-76857143D01*
X117285715Y-76800000D01*
X117571429Y-76800000D01*
X117685715Y-76857143D01*
X117742858Y-76914286D01*
X117800001Y-77028571D01*
X117800001Y-77314286D01*
X117742858Y-77428571D01*
X117685715Y-77485714D01*
X117571429Y-77542857D01*
X117285715Y-77542857D01*
X117171429Y-77485714D01*
X117114286Y-77428571D01*
X118200001Y-76742857D02*
X118485715Y-77542857D01*
X118771429Y-76742857D01*
X120657144Y-76742857D02*
X120657144Y-77714286D01*
X120600001Y-77828571D01*
X120542858Y-77885714D01*
X120428573Y-77942857D01*
X120257144Y-77942857D01*
X120142858Y-77885714D01*
X120657144Y-77485714D02*
X120542858Y-77542857D01*
X120314287Y-77542857D01*
X120200001Y-77485714D01*
X120142858Y-77428571D01*
X120085715Y-77314286D01*
X120085715Y-76971429D01*
X120142858Y-76857143D01*
X120200001Y-76800000D01*
X120314287Y-76742857D01*
X120542858Y-76742857D01*
X120657144Y-76800000D01*
X121228572Y-76742857D02*
X121228572Y-77542857D01*
X121228572Y-76857143D02*
X121285715Y-76800000D01*
X121400001Y-76742857D01*
X121571429Y-76742857D01*
X121685715Y-76800000D01*
X121742858Y-76914286D01*
X121742858Y-77542857D01*
X122828572Y-77542857D02*
X122828572Y-76342857D01*
X122828572Y-77485714D02*
X122714286Y-77542857D01*
X122485715Y-77542857D01*
X122371429Y-77485714D01*
X122314286Y-77428571D01*
X122257143Y-77314286D01*
X122257143Y-76971429D01*
X122314286Y-76857143D01*
X122371429Y-76800000D01*
X122485715Y-76742857D01*
X122714286Y-76742857D01*
X122828572Y-76800000D01*
X99285714Y-80042857D02*
X99285714Y-79242857D01*
X99285714Y-79471429D02*
X99342857Y-79357143D01*
X99400000Y-79300000D01*
X99514286Y-79242857D01*
X99628571Y-79242857D01*
X99857143Y-79242857D02*
X100314286Y-79242857D01*
X100028571Y-80042857D02*
X100028571Y-79014286D01*
X100085714Y-78900000D01*
X100200000Y-78842857D01*
X100314286Y-78842857D01*
X101628571Y-80042857D02*
X101628571Y-79242857D01*
X101628571Y-78842857D02*
X101571428Y-78900000D01*
X101628571Y-78957143D01*
X101685714Y-78900000D01*
X101628571Y-78842857D01*
X101628571Y-78957143D01*
X102200000Y-79242857D02*
X102200000Y-80042857D01*
X102200000Y-79357143D02*
X102257143Y-79300000D01*
X102371429Y-79242857D01*
X102542857Y-79242857D01*
X102657143Y-79300000D01*
X102714286Y-79414286D01*
X102714286Y-80042857D01*
X124685715Y-80042857D02*
X124685715Y-79242857D01*
X124685715Y-79471429D02*
X124742858Y-79357143D01*
X124800001Y-79300000D01*
X124914287Y-79242857D01*
X125028572Y-79242857D01*
X125257144Y-79242857D02*
X125714287Y-79242857D01*
X125428572Y-80042857D02*
X125428572Y-79014286D01*
X125485715Y-78900000D01*
X125600001Y-78842857D01*
X125714287Y-78842857D01*
X127200001Y-80042857D02*
X127085715Y-79985714D01*
X127028572Y-79928571D01*
X126971429Y-79814286D01*
X126971429Y-79471429D01*
X127028572Y-79357143D01*
X127085715Y-79300000D01*
X127200001Y-79242857D01*
X127371429Y-79242857D01*
X127485715Y-79300000D01*
X127542858Y-79357143D01*
X127600001Y-79471429D01*
X127600001Y-79814286D01*
X127542858Y-79928571D01*
X127485715Y-79985714D01*
X127371429Y-80042857D01*
X127200001Y-80042857D01*
X128628572Y-79242857D02*
X128628572Y-80042857D01*
X128114286Y-79242857D02*
X128114286Y-79871429D01*
X128171429Y-79985714D01*
X128285715Y-80042857D01*
X128457143Y-80042857D01*
X128571429Y-79985714D01*
X128628572Y-79928571D01*
X129028572Y-79242857D02*
X129485715Y-79242857D01*
X129200000Y-78842857D02*
X129200000Y-79871429D01*
X129257143Y-79985714D01*
X129371429Y-80042857D01*
X129485715Y-80042857D01*
D12*
X107750000Y-85475000D02*
X108250000Y-85475000D01*
X108250000Y-84525000D02*
X107750000Y-84525000D01*
X113500000Y-73975000D02*
X114000000Y-73975000D01*
X114000000Y-73025000D02*
X113500000Y-73025000D01*
X113500000Y-75475000D02*
X114000000Y-75475000D01*
X114000000Y-74525000D02*
X113500000Y-74525000D01*
X110250000Y-88475000D02*
X110750000Y-88475000D01*
X110750000Y-87525000D02*
X110250000Y-87525000D01*
X118750000Y-81525000D02*
X118250000Y-81525000D01*
X118250000Y-82475000D02*
X118750000Y-82475000D01*
X120000000Y-85475000D02*
X120500000Y-85475000D01*
X120500000Y-84525000D02*
X120000000Y-84525000D01*
X118750000Y-80025000D02*
X118250000Y-80025000D01*
X118250000Y-80975000D02*
X118750000Y-80975000D01*
X118400000Y-78400000D02*
X119100000Y-78400000D01*
X119100000Y-79600000D02*
X118400000Y-79600000D01*
X125950000Y-72400000D02*
X125950000Y-74300000D01*
X127050000Y-72400000D02*
X127050000Y-74300000D01*
X126500000Y-73300000D02*
X126500000Y-73750000D01*
X126750000Y-73250000D02*
X126250000Y-73250000D01*
X126500000Y-73250000D02*
X126750000Y-73500000D01*
X126750000Y-73500000D02*
X126250000Y-73500000D01*
X126250000Y-73500000D02*
X126500000Y-73250000D01*
X118525000Y-86750000D02*
X118525000Y-86250000D01*
X117475000Y-86250000D02*
X117475000Y-86750000D01*
X118525000Y-84250000D02*
X118525000Y-83750000D01*
X117475000Y-83750000D02*
X117475000Y-84250000D01*
X114000000Y-77425000D02*
X113000000Y-77425000D01*
X113000000Y-76075000D02*
X114000000Y-76075000D01*
X119770000Y-74770000D02*
X117230000Y-74770000D01*
X122590000Y-75050000D02*
X121040000Y-75050000D01*
X119770000Y-74770000D02*
X119770000Y-72230000D01*
X121040000Y-71950000D02*
X122590000Y-71950000D01*
X122590000Y-71950000D02*
X122590000Y-75050000D01*
X119770000Y-72230000D02*
X117230000Y-72230000D01*
X117230000Y-72230000D02*
X117230000Y-74770000D01*
X108500000Y-70805000D02*
X100500000Y-70805000D01*
X108500000Y-78125000D02*
X100500000Y-78125000D01*
X100500000Y-78125000D02*
X100500000Y-70805000D01*
X100500000Y-71425000D02*
X108500000Y-71425000D01*
X108500000Y-70805000D02*
X108500000Y-78125000D01*
X109475000Y-85700000D02*
X109475000Y-86200000D01*
X110525000Y-86200000D02*
X110525000Y-85700000D01*
X125975000Y-76200000D02*
X125975000Y-76700000D01*
X127025000Y-76700000D02*
X127025000Y-76200000D01*
X115800000Y-79525000D02*
X116300000Y-79525000D01*
X116300000Y-78475000D02*
X115800000Y-78475000D01*
X104750000Y-78975000D02*
X104250000Y-78975000D01*
X104250000Y-80025000D02*
X104750000Y-80025000D01*
X98436000Y-88810000D02*
X98436000Y-81190000D01*
X98182000Y-88810000D02*
X98690000Y-88810000D01*
X98182000Y-81190000D02*
X98182000Y-88810000D01*
X98182000Y-81190000D02*
X98690000Y-81190000D01*
X106310000Y-88810000D02*
X98690000Y-88810000D01*
X106310000Y-81190000D02*
X106310000Y-88810000D01*
X98690000Y-81190000D02*
X106310000Y-81190000D01*
X111170000Y-86100000D02*
X111270000Y-86100000D01*
X110470000Y-85600000D02*
X110470000Y-86000000D01*
X110470000Y-86000000D02*
X110470000Y-86100000D01*
X110470000Y-86100000D02*
X111170000Y-86100000D01*
X110470000Y-83900000D02*
X111270000Y-83900000D01*
X110470000Y-83900000D02*
X110470000Y-84300000D01*
X130064000Y-81190000D02*
X130064000Y-88810000D01*
X130318000Y-81190000D02*
X129810000Y-81190000D01*
X130318000Y-88810000D02*
X130318000Y-81190000D01*
X130318000Y-88810000D02*
X129810000Y-88810000D01*
X122190000Y-81190000D02*
X129810000Y-81190000D01*
X122190000Y-88810000D02*
X122190000Y-81190000D01*
X129810000Y-88810000D02*
X122190000Y-88810000D01*
D13*
X107604762Y-83285714D02*
X107566667Y-83323810D01*
X107452381Y-83361905D01*
X107376191Y-83361905D01*
X107261905Y-83323810D01*
X107185714Y-83247619D01*
X107147619Y-83171429D01*
X107109524Y-83019048D01*
X107109524Y-82904762D01*
X107147619Y-82752381D01*
X107185714Y-82676190D01*
X107261905Y-82600000D01*
X107376191Y-82561905D01*
X107452381Y-82561905D01*
X107566667Y-82600000D01*
X107604762Y-82638095D01*
X108366667Y-83361905D02*
X107909524Y-83361905D01*
X108138095Y-83361905D02*
X108138095Y-82561905D01*
X108061905Y-82676190D01*
X107985714Y-82752381D01*
X107909524Y-82790476D01*
X108861905Y-82561905D02*
X108938096Y-82561905D01*
X109014286Y-82600000D01*
X109052381Y-82638095D01*
X109090477Y-82714286D01*
X109128572Y-82866667D01*
X109128572Y-83057143D01*
X109090477Y-83209524D01*
X109052381Y-83285714D01*
X109014286Y-83323810D01*
X108938096Y-83361905D01*
X108861905Y-83361905D01*
X108785715Y-83323810D01*
X108747619Y-83285714D01*
X108709524Y-83209524D01*
X108671429Y-83057143D01*
X108671429Y-82866667D01*
X108709524Y-82714286D01*
X108747619Y-82638095D01*
X108785715Y-82600000D01*
X108861905Y-82561905D01*
X109890477Y-83361905D02*
X109433334Y-83361905D01*
X109661905Y-83361905D02*
X109661905Y-82561905D01*
X109585715Y-82676190D01*
X109509524Y-82752381D01*
X109433334Y-82790476D01*
X109354762Y-73035714D02*
X109316667Y-73073810D01*
X109202381Y-73111905D01*
X109126191Y-73111905D01*
X109011905Y-73073810D01*
X108935714Y-72997619D01*
X108897619Y-72921429D01*
X108859524Y-72769048D01*
X108859524Y-72654762D01*
X108897619Y-72502381D01*
X108935714Y-72426190D01*
X109011905Y-72350000D01*
X109126191Y-72311905D01*
X109202381Y-72311905D01*
X109316667Y-72350000D01*
X109354762Y-72388095D01*
X110116667Y-73111905D02*
X109659524Y-73111905D01*
X109888095Y-73111905D02*
X109888095Y-72311905D01*
X109811905Y-72426190D01*
X109735714Y-72502381D01*
X109659524Y-72540476D01*
X110611905Y-72311905D02*
X110688096Y-72311905D01*
X110764286Y-72350000D01*
X110802381Y-72388095D01*
X110840477Y-72464286D01*
X110878572Y-72616667D01*
X110878572Y-72807143D01*
X110840477Y-72959524D01*
X110802381Y-73035714D01*
X110764286Y-73073810D01*
X110688096Y-73111905D01*
X110611905Y-73111905D01*
X110535715Y-73073810D01*
X110497619Y-73035714D01*
X110459524Y-72959524D01*
X110421429Y-72807143D01*
X110421429Y-72616667D01*
X110459524Y-72464286D01*
X110497619Y-72388095D01*
X110535715Y-72350000D01*
X110611905Y-72311905D01*
X111183334Y-72388095D02*
X111221429Y-72350000D01*
X111297620Y-72311905D01*
X111488096Y-72311905D01*
X111564286Y-72350000D01*
X111602382Y-72388095D01*
X111640477Y-72464286D01*
X111640477Y-72540476D01*
X111602382Y-72654762D01*
X111145239Y-73111905D01*
X111640477Y-73111905D01*
X109354762Y-74535714D02*
X109316667Y-74573810D01*
X109202381Y-74611905D01*
X109126191Y-74611905D01*
X109011905Y-74573810D01*
X108935714Y-74497619D01*
X108897619Y-74421429D01*
X108859524Y-74269048D01*
X108859524Y-74154762D01*
X108897619Y-74002381D01*
X108935714Y-73926190D01*
X109011905Y-73850000D01*
X109126191Y-73811905D01*
X109202381Y-73811905D01*
X109316667Y-73850000D01*
X109354762Y-73888095D01*
X110116667Y-74611905D02*
X109659524Y-74611905D01*
X109888095Y-74611905D02*
X109888095Y-73811905D01*
X109811905Y-73926190D01*
X109735714Y-74002381D01*
X109659524Y-74040476D01*
X110611905Y-73811905D02*
X110688096Y-73811905D01*
X110764286Y-73850000D01*
X110802381Y-73888095D01*
X110840477Y-73964286D01*
X110878572Y-74116667D01*
X110878572Y-74307143D01*
X110840477Y-74459524D01*
X110802381Y-74535714D01*
X110764286Y-74573810D01*
X110688096Y-74611905D01*
X110611905Y-74611905D01*
X110535715Y-74573810D01*
X110497619Y-74535714D01*
X110459524Y-74459524D01*
X110421429Y-74307143D01*
X110421429Y-74116667D01*
X110459524Y-73964286D01*
X110497619Y-73888095D01*
X110535715Y-73850000D01*
X110611905Y-73811905D01*
X111145239Y-73811905D02*
X111640477Y-73811905D01*
X111373810Y-74116667D01*
X111488096Y-74116667D01*
X111564286Y-74154762D01*
X111602382Y-74192857D01*
X111640477Y-74269048D01*
X111640477Y-74459524D01*
X111602382Y-74535714D01*
X111564286Y-74573810D01*
X111488096Y-74611905D01*
X111259524Y-74611905D01*
X111183334Y-74573810D01*
X111145239Y-74535714D01*
X109854762Y-90535714D02*
X109816667Y-90573810D01*
X109702381Y-90611905D01*
X109626191Y-90611905D01*
X109511905Y-90573810D01*
X109435714Y-90497619D01*
X109397619Y-90421429D01*
X109359524Y-90269048D01*
X109359524Y-90154762D01*
X109397619Y-90002381D01*
X109435714Y-89926190D01*
X109511905Y-89850000D01*
X109626191Y-89811905D01*
X109702381Y-89811905D01*
X109816667Y-89850000D01*
X109854762Y-89888095D01*
X110616667Y-90611905D02*
X110159524Y-90611905D01*
X110388095Y-90611905D02*
X110388095Y-89811905D01*
X110311905Y-89926190D01*
X110235714Y-90002381D01*
X110159524Y-90040476D01*
X111111905Y-89811905D02*
X111188096Y-89811905D01*
X111264286Y-89850000D01*
X111302381Y-89888095D01*
X111340477Y-89964286D01*
X111378572Y-90116667D01*
X111378572Y-90307143D01*
X111340477Y-90459524D01*
X111302381Y-90535714D01*
X111264286Y-90573810D01*
X111188096Y-90611905D01*
X111111905Y-90611905D01*
X111035715Y-90573810D01*
X110997619Y-90535714D01*
X110959524Y-90459524D01*
X110921429Y-90307143D01*
X110921429Y-90116667D01*
X110959524Y-89964286D01*
X110997619Y-89888095D01*
X111035715Y-89850000D01*
X111111905Y-89811905D01*
X112064286Y-90078571D02*
X112064286Y-90611905D01*
X111873810Y-89773810D02*
X111683334Y-90345238D01*
X112178572Y-90345238D01*
X116685714Y-82695238D02*
X116723810Y-82733333D01*
X116761905Y-82847619D01*
X116761905Y-82923809D01*
X116723810Y-83038095D01*
X116647619Y-83114286D01*
X116571429Y-83152381D01*
X116419048Y-83190476D01*
X116304762Y-83190476D01*
X116152381Y-83152381D01*
X116076190Y-83114286D01*
X116000000Y-83038095D01*
X115961905Y-82923809D01*
X115961905Y-82847619D01*
X116000000Y-82733333D01*
X116038095Y-82695238D01*
X116761905Y-81933333D02*
X116761905Y-82390476D01*
X116761905Y-82161905D02*
X115961905Y-82161905D01*
X116076190Y-82238095D01*
X116152381Y-82314286D01*
X116190476Y-82390476D01*
X115961905Y-81438095D02*
X115961905Y-81361904D01*
X116000000Y-81285714D01*
X116038095Y-81247619D01*
X116114286Y-81209523D01*
X116266667Y-81171428D01*
X116457143Y-81171428D01*
X116609524Y-81209523D01*
X116685714Y-81247619D01*
X116723810Y-81285714D01*
X116761905Y-81361904D01*
X116761905Y-81438095D01*
X116723810Y-81514285D01*
X116685714Y-81552381D01*
X116609524Y-81590476D01*
X116457143Y-81628571D01*
X116266667Y-81628571D01*
X116114286Y-81590476D01*
X116038095Y-81552381D01*
X116000000Y-81514285D01*
X115961905Y-81438095D01*
X115961905Y-80447618D02*
X115961905Y-80828571D01*
X116342857Y-80866666D01*
X116304762Y-80828571D01*
X116266667Y-80752380D01*
X116266667Y-80561904D01*
X116304762Y-80485714D01*
X116342857Y-80447618D01*
X116419048Y-80409523D01*
X116609524Y-80409523D01*
X116685714Y-80447618D01*
X116723810Y-80485714D01*
X116761905Y-80561904D01*
X116761905Y-80752380D01*
X116723810Y-80828571D01*
X116685714Y-80866666D01*
X119354762Y-88785714D02*
X119316667Y-88823810D01*
X119202381Y-88861905D01*
X119126191Y-88861905D01*
X119011905Y-88823810D01*
X118935714Y-88747619D01*
X118897619Y-88671429D01*
X118859524Y-88519048D01*
X118859524Y-88404762D01*
X118897619Y-88252381D01*
X118935714Y-88176190D01*
X119011905Y-88100000D01*
X119126191Y-88061905D01*
X119202381Y-88061905D01*
X119316667Y-88100000D01*
X119354762Y-88138095D01*
X120116667Y-88861905D02*
X119659524Y-88861905D01*
X119888095Y-88861905D02*
X119888095Y-88061905D01*
X119811905Y-88176190D01*
X119735714Y-88252381D01*
X119659524Y-88290476D01*
X120611905Y-88061905D02*
X120688096Y-88061905D01*
X120764286Y-88100000D01*
X120802381Y-88138095D01*
X120840477Y-88214286D01*
X120878572Y-88366667D01*
X120878572Y-88557143D01*
X120840477Y-88709524D01*
X120802381Y-88785714D01*
X120764286Y-88823810D01*
X120688096Y-88861905D01*
X120611905Y-88861905D01*
X120535715Y-88823810D01*
X120497619Y-88785714D01*
X120459524Y-88709524D01*
X120421429Y-88557143D01*
X120421429Y-88366667D01*
X120459524Y-88214286D01*
X120497619Y-88138095D01*
X120535715Y-88100000D01*
X120611905Y-88061905D01*
X121564286Y-88061905D02*
X121411905Y-88061905D01*
X121335715Y-88100000D01*
X121297620Y-88138095D01*
X121221429Y-88252381D01*
X121183334Y-88404762D01*
X121183334Y-88709524D01*
X121221429Y-88785714D01*
X121259524Y-88823810D01*
X121335715Y-88861905D01*
X121488096Y-88861905D01*
X121564286Y-88823810D01*
X121602382Y-88785714D01*
X121640477Y-88709524D01*
X121640477Y-88519048D01*
X121602382Y-88442857D01*
X121564286Y-88404762D01*
X121488096Y-88366667D01*
X121335715Y-88366667D01*
X121259524Y-88404762D01*
X121221429Y-88442857D01*
X121183334Y-88519048D01*
X121604762Y-80535714D02*
X121566667Y-80573810D01*
X121452381Y-80611905D01*
X121376191Y-80611905D01*
X121261905Y-80573810D01*
X121185714Y-80497619D01*
X121147619Y-80421429D01*
X121109524Y-80269048D01*
X121109524Y-80154762D01*
X121147619Y-80002381D01*
X121185714Y-79926190D01*
X121261905Y-79850000D01*
X121376191Y-79811905D01*
X121452381Y-79811905D01*
X121566667Y-79850000D01*
X121604762Y-79888095D01*
X122366667Y-80611905D02*
X121909524Y-80611905D01*
X122138095Y-80611905D02*
X122138095Y-79811905D01*
X122061905Y-79926190D01*
X121985714Y-80002381D01*
X121909524Y-80040476D01*
X122861905Y-79811905D02*
X122938096Y-79811905D01*
X123014286Y-79850000D01*
X123052381Y-79888095D01*
X123090477Y-79964286D01*
X123128572Y-80116667D01*
X123128572Y-80307143D01*
X123090477Y-80459524D01*
X123052381Y-80535714D01*
X123014286Y-80573810D01*
X122938096Y-80611905D01*
X122861905Y-80611905D01*
X122785715Y-80573810D01*
X122747619Y-80535714D01*
X122709524Y-80459524D01*
X122671429Y-80307143D01*
X122671429Y-80116667D01*
X122709524Y-79964286D01*
X122747619Y-79888095D01*
X122785715Y-79850000D01*
X122861905Y-79811905D01*
X123395239Y-79811905D02*
X123928572Y-79811905D01*
X123585715Y-80611905D01*
X121604762Y-79285714D02*
X121566667Y-79323810D01*
X121452381Y-79361905D01*
X121376191Y-79361905D01*
X121261905Y-79323810D01*
X121185714Y-79247619D01*
X121147619Y-79171429D01*
X121109524Y-79019048D01*
X121109524Y-78904762D01*
X121147619Y-78752381D01*
X121185714Y-78676190D01*
X121261905Y-78600000D01*
X121376191Y-78561905D01*
X121452381Y-78561905D01*
X121566667Y-78600000D01*
X121604762Y-78638095D01*
X122366667Y-79361905D02*
X121909524Y-79361905D01*
X122138095Y-79361905D02*
X122138095Y-78561905D01*
X122061905Y-78676190D01*
X121985714Y-78752381D01*
X121909524Y-78790476D01*
X122861905Y-78561905D02*
X122938096Y-78561905D01*
X123014286Y-78600000D01*
X123052381Y-78638095D01*
X123090477Y-78714286D01*
X123128572Y-78866667D01*
X123128572Y-79057143D01*
X123090477Y-79209524D01*
X123052381Y-79285714D01*
X123014286Y-79323810D01*
X122938096Y-79361905D01*
X122861905Y-79361905D01*
X122785715Y-79323810D01*
X122747619Y-79285714D01*
X122709524Y-79209524D01*
X122671429Y-79057143D01*
X122671429Y-78866667D01*
X122709524Y-78714286D01*
X122747619Y-78638095D01*
X122785715Y-78600000D01*
X122861905Y-78561905D01*
X123585715Y-78904762D02*
X123509524Y-78866667D01*
X123471429Y-78828571D01*
X123433334Y-78752381D01*
X123433334Y-78714286D01*
X123471429Y-78638095D01*
X123509524Y-78600000D01*
X123585715Y-78561905D01*
X123738096Y-78561905D01*
X123814286Y-78600000D01*
X123852382Y-78638095D01*
X123890477Y-78714286D01*
X123890477Y-78752381D01*
X123852382Y-78828571D01*
X123814286Y-78866667D01*
X123738096Y-78904762D01*
X123585715Y-78904762D01*
X123509524Y-78942857D01*
X123471429Y-78980952D01*
X123433334Y-79057143D01*
X123433334Y-79209524D01*
X123471429Y-79285714D01*
X123509524Y-79323810D01*
X123585715Y-79361905D01*
X123738096Y-79361905D01*
X123814286Y-79323810D01*
X123852382Y-79285714D01*
X123890477Y-79209524D01*
X123890477Y-79057143D01*
X123852382Y-78980952D01*
X123814286Y-78942857D01*
X123738096Y-78904762D01*
X128611905Y-74852381D02*
X127811905Y-74852381D01*
X127811905Y-74661905D01*
X127850000Y-74547619D01*
X127926190Y-74471428D01*
X128002381Y-74433333D01*
X128154762Y-74395238D01*
X128269048Y-74395238D01*
X128421429Y-74433333D01*
X128497619Y-74471428D01*
X128573810Y-74547619D01*
X128611905Y-74661905D01*
X128611905Y-74852381D01*
X128611905Y-73633333D02*
X128611905Y-74090476D01*
X128611905Y-73861905D02*
X127811905Y-73861905D01*
X127926190Y-73938095D01*
X128002381Y-74014286D01*
X128040476Y-74090476D01*
X127811905Y-73138095D02*
X127811905Y-73061904D01*
X127850000Y-72985714D01*
X127888095Y-72947619D01*
X127964286Y-72909523D01*
X128116667Y-72871428D01*
X128307143Y-72871428D01*
X128459524Y-72909523D01*
X128535714Y-72947619D01*
X128573810Y-72985714D01*
X128611905Y-73061904D01*
X128611905Y-73138095D01*
X128573810Y-73214285D01*
X128535714Y-73252381D01*
X128459524Y-73290476D01*
X128307143Y-73328571D01*
X128116667Y-73328571D01*
X127964286Y-73290476D01*
X127888095Y-73252381D01*
X127850000Y-73214285D01*
X127811905Y-73138095D01*
X128611905Y-72109523D02*
X128611905Y-72566666D01*
X128611905Y-72338095D02*
X127811905Y-72338095D01*
X127926190Y-72414285D01*
X128002381Y-72490476D01*
X128040476Y-72566666D01*
X116861905Y-88895238D02*
X116861905Y-89276191D01*
X116061905Y-89276191D01*
X116861905Y-88209524D02*
X116861905Y-88666667D01*
X116861905Y-88438096D02*
X116061905Y-88438096D01*
X116176190Y-88514286D01*
X116252381Y-88590477D01*
X116290476Y-88666667D01*
X116061905Y-87714286D02*
X116061905Y-87638095D01*
X116100000Y-87561905D01*
X116138095Y-87523810D01*
X116214286Y-87485714D01*
X116366667Y-87447619D01*
X116557143Y-87447619D01*
X116709524Y-87485714D01*
X116785714Y-87523810D01*
X116823810Y-87561905D01*
X116861905Y-87638095D01*
X116861905Y-87714286D01*
X116823810Y-87790476D01*
X116785714Y-87828572D01*
X116709524Y-87866667D01*
X116557143Y-87904762D01*
X116366667Y-87904762D01*
X116214286Y-87866667D01*
X116138095Y-87828572D01*
X116100000Y-87790476D01*
X116061905Y-87714286D01*
X116861905Y-86685714D02*
X116861905Y-87142857D01*
X116861905Y-86914286D02*
X116061905Y-86914286D01*
X116176190Y-86990476D01*
X116252381Y-87066667D01*
X116290476Y-87142857D01*
X119604762Y-83611905D02*
X119223809Y-83611905D01*
X119223809Y-82811905D01*
X120290476Y-83611905D02*
X119833333Y-83611905D01*
X120061904Y-83611905D02*
X120061904Y-82811905D01*
X119985714Y-82926190D01*
X119909523Y-83002381D01*
X119833333Y-83040476D01*
X120785714Y-82811905D02*
X120861905Y-82811905D01*
X120938095Y-82850000D01*
X120976190Y-82888095D01*
X121014286Y-82964286D01*
X121052381Y-83116667D01*
X121052381Y-83307143D01*
X121014286Y-83459524D01*
X120976190Y-83535714D01*
X120938095Y-83573810D01*
X120861905Y-83611905D01*
X120785714Y-83611905D01*
X120709524Y-83573810D01*
X120671428Y-83535714D01*
X120633333Y-83459524D01*
X120595238Y-83307143D01*
X120595238Y-83116667D01*
X120633333Y-82964286D01*
X120671428Y-82888095D01*
X120709524Y-82850000D01*
X120785714Y-82811905D01*
X121357143Y-82888095D02*
X121395238Y-82850000D01*
X121471429Y-82811905D01*
X121661905Y-82811905D01*
X121738095Y-82850000D01*
X121776191Y-82888095D01*
X121814286Y-82964286D01*
X121814286Y-83040476D01*
X121776191Y-83154762D01*
X121319048Y-83611905D01*
X121814286Y-83611905D01*
X111354762Y-78861905D02*
X110973809Y-78861905D01*
X110973809Y-78061905D01*
X112040476Y-78861905D02*
X111583333Y-78861905D01*
X111811904Y-78861905D02*
X111811904Y-78061905D01*
X111735714Y-78176190D01*
X111659523Y-78252381D01*
X111583333Y-78290476D01*
X112535714Y-78061905D02*
X112611905Y-78061905D01*
X112688095Y-78100000D01*
X112726190Y-78138095D01*
X112764286Y-78214286D01*
X112802381Y-78366667D01*
X112802381Y-78557143D01*
X112764286Y-78709524D01*
X112726190Y-78785714D01*
X112688095Y-78823810D01*
X112611905Y-78861905D01*
X112535714Y-78861905D01*
X112459524Y-78823810D01*
X112421428Y-78785714D01*
X112383333Y-78709524D01*
X112345238Y-78557143D01*
X112345238Y-78366667D01*
X112383333Y-78214286D01*
X112421428Y-78138095D01*
X112459524Y-78100000D01*
X112535714Y-78061905D01*
X113069048Y-78061905D02*
X113564286Y-78061905D01*
X113297619Y-78366667D01*
X113411905Y-78366667D01*
X113488095Y-78404762D01*
X113526191Y-78442857D01*
X113564286Y-78519048D01*
X113564286Y-78709524D01*
X113526191Y-78785714D01*
X113488095Y-78823810D01*
X113411905Y-78861905D01*
X113183333Y-78861905D01*
X113107143Y-78823810D01*
X113069048Y-78785714D01*
X124401905Y-74852381D02*
X123601905Y-74852381D01*
X123601905Y-74547619D01*
X123640000Y-74471428D01*
X123678095Y-74433333D01*
X123754286Y-74395238D01*
X123868571Y-74395238D01*
X123944762Y-74433333D01*
X123982857Y-74471428D01*
X124020952Y-74547619D01*
X124020952Y-74852381D01*
X124401905Y-73633333D02*
X124401905Y-74090476D01*
X124401905Y-73861905D02*
X123601905Y-73861905D01*
X123716190Y-73938095D01*
X123792381Y-74014286D01*
X123830476Y-74090476D01*
X123601905Y-73138095D02*
X123601905Y-73061904D01*
X123640000Y-72985714D01*
X123678095Y-72947619D01*
X123754286Y-72909523D01*
X123906667Y-72871428D01*
X124097143Y-72871428D01*
X124249524Y-72909523D01*
X124325714Y-72947619D01*
X124363810Y-72985714D01*
X124401905Y-73061904D01*
X124401905Y-73138095D01*
X124363810Y-73214285D01*
X124325714Y-73252381D01*
X124249524Y-73290476D01*
X124097143Y-73328571D01*
X123906667Y-73328571D01*
X123754286Y-73290476D01*
X123678095Y-73252381D01*
X123640000Y-73214285D01*
X123601905Y-73138095D01*
X124401905Y-72109523D02*
X124401905Y-72566666D01*
X124401905Y-72338095D02*
X123601905Y-72338095D01*
X123716190Y-72414285D01*
X123792381Y-72490476D01*
X123830476Y-72566666D01*
X99861905Y-75102381D02*
X99061905Y-75102381D01*
X99061905Y-74797619D01*
X99100000Y-74721428D01*
X99138095Y-74683333D01*
X99214286Y-74645238D01*
X99328571Y-74645238D01*
X99404762Y-74683333D01*
X99442857Y-74721428D01*
X99480952Y-74797619D01*
X99480952Y-75102381D01*
X99861905Y-73883333D02*
X99861905Y-74340476D01*
X99861905Y-74111905D02*
X99061905Y-74111905D01*
X99176190Y-74188095D01*
X99252381Y-74264286D01*
X99290476Y-74340476D01*
X99061905Y-73388095D02*
X99061905Y-73311904D01*
X99100000Y-73235714D01*
X99138095Y-73197619D01*
X99214286Y-73159523D01*
X99366667Y-73121428D01*
X99557143Y-73121428D01*
X99709524Y-73159523D01*
X99785714Y-73197619D01*
X99823810Y-73235714D01*
X99861905Y-73311904D01*
X99861905Y-73388095D01*
X99823810Y-73464285D01*
X99785714Y-73502381D01*
X99709524Y-73540476D01*
X99557143Y-73578571D01*
X99366667Y-73578571D01*
X99214286Y-73540476D01*
X99138095Y-73502381D01*
X99100000Y-73464285D01*
X99061905Y-73388095D01*
X99138095Y-72816666D02*
X99100000Y-72778571D01*
X99061905Y-72702380D01*
X99061905Y-72511904D01*
X99100000Y-72435714D01*
X99138095Y-72397618D01*
X99214286Y-72359523D01*
X99290476Y-72359523D01*
X99404762Y-72397618D01*
X99861905Y-72854761D01*
X99861905Y-72359523D01*
X108361905Y-88895238D02*
X107980952Y-89161905D01*
X108361905Y-89352381D02*
X107561905Y-89352381D01*
X107561905Y-89047619D01*
X107600000Y-88971428D01*
X107638095Y-88933333D01*
X107714286Y-88895238D01*
X107828571Y-88895238D01*
X107904762Y-88933333D01*
X107942857Y-88971428D01*
X107980952Y-89047619D01*
X107980952Y-89352381D01*
X108361905Y-88133333D02*
X108361905Y-88590476D01*
X108361905Y-88361905D02*
X107561905Y-88361905D01*
X107676190Y-88438095D01*
X107752381Y-88514286D01*
X107790476Y-88590476D01*
X107561905Y-87638095D02*
X107561905Y-87561904D01*
X107600000Y-87485714D01*
X107638095Y-87447619D01*
X107714286Y-87409523D01*
X107866667Y-87371428D01*
X108057143Y-87371428D01*
X108209524Y-87409523D01*
X108285714Y-87447619D01*
X108323810Y-87485714D01*
X108361905Y-87561904D01*
X108361905Y-87638095D01*
X108323810Y-87714285D01*
X108285714Y-87752381D01*
X108209524Y-87790476D01*
X108057143Y-87828571D01*
X107866667Y-87828571D01*
X107714286Y-87790476D01*
X107638095Y-87752381D01*
X107600000Y-87714285D01*
X107561905Y-87638095D01*
X108361905Y-86609523D02*
X108361905Y-87066666D01*
X108361905Y-86838095D02*
X107561905Y-86838095D01*
X107676190Y-86914285D01*
X107752381Y-86990476D01*
X107790476Y-87066666D01*
X128611905Y-77895238D02*
X128230952Y-78161905D01*
X128611905Y-78352381D02*
X127811905Y-78352381D01*
X127811905Y-78047619D01*
X127850000Y-77971428D01*
X127888095Y-77933333D01*
X127964286Y-77895238D01*
X128078571Y-77895238D01*
X128154762Y-77933333D01*
X128192857Y-77971428D01*
X128230952Y-78047619D01*
X128230952Y-78352381D01*
X128611905Y-77133333D02*
X128611905Y-77590476D01*
X128611905Y-77361905D02*
X127811905Y-77361905D01*
X127926190Y-77438095D01*
X128002381Y-77514286D01*
X128040476Y-77590476D01*
X127811905Y-76638095D02*
X127811905Y-76561904D01*
X127850000Y-76485714D01*
X127888095Y-76447619D01*
X127964286Y-76409523D01*
X128116667Y-76371428D01*
X128307143Y-76371428D01*
X128459524Y-76409523D01*
X128535714Y-76447619D01*
X128573810Y-76485714D01*
X128611905Y-76561904D01*
X128611905Y-76638095D01*
X128573810Y-76714285D01*
X128535714Y-76752381D01*
X128459524Y-76790476D01*
X128307143Y-76828571D01*
X128116667Y-76828571D01*
X127964286Y-76790476D01*
X127888095Y-76752381D01*
X127850000Y-76714285D01*
X127811905Y-76638095D01*
X127888095Y-76066666D02*
X127850000Y-76028571D01*
X127811905Y-75952380D01*
X127811905Y-75761904D01*
X127850000Y-75685714D01*
X127888095Y-75647618D01*
X127964286Y-75609523D01*
X128040476Y-75609523D01*
X128154762Y-75647618D01*
X128611905Y-76104761D01*
X128611905Y-75609523D01*
X111354762Y-80111905D02*
X111088095Y-79730952D01*
X110897619Y-80111905D02*
X110897619Y-79311905D01*
X111202381Y-79311905D01*
X111278572Y-79350000D01*
X111316667Y-79388095D01*
X111354762Y-79464286D01*
X111354762Y-79578571D01*
X111316667Y-79654762D01*
X111278572Y-79692857D01*
X111202381Y-79730952D01*
X110897619Y-79730952D01*
X112116667Y-80111905D02*
X111659524Y-80111905D01*
X111888095Y-80111905D02*
X111888095Y-79311905D01*
X111811905Y-79426190D01*
X111735714Y-79502381D01*
X111659524Y-79540476D01*
X112611905Y-79311905D02*
X112688096Y-79311905D01*
X112764286Y-79350000D01*
X112802381Y-79388095D01*
X112840477Y-79464286D01*
X112878572Y-79616667D01*
X112878572Y-79807143D01*
X112840477Y-79959524D01*
X112802381Y-80035714D01*
X112764286Y-80073810D01*
X112688096Y-80111905D01*
X112611905Y-80111905D01*
X112535715Y-80073810D01*
X112497619Y-80035714D01*
X112459524Y-79959524D01*
X112421429Y-79807143D01*
X112421429Y-79616667D01*
X112459524Y-79464286D01*
X112497619Y-79388095D01*
X112535715Y-79350000D01*
X112611905Y-79311905D01*
X113145239Y-79311905D02*
X113640477Y-79311905D01*
X113373810Y-79616667D01*
X113488096Y-79616667D01*
X113564286Y-79654762D01*
X113602382Y-79692857D01*
X113640477Y-79769048D01*
X113640477Y-79959524D01*
X113602382Y-80035714D01*
X113564286Y-80073810D01*
X113488096Y-80111905D01*
X113259524Y-80111905D01*
X113183334Y-80073810D01*
X113145239Y-80035714D01*
X106604762Y-79861905D02*
X106338095Y-79480952D01*
X106147619Y-79861905D02*
X106147619Y-79061905D01*
X106452381Y-79061905D01*
X106528572Y-79100000D01*
X106566667Y-79138095D01*
X106604762Y-79214286D01*
X106604762Y-79328571D01*
X106566667Y-79404762D01*
X106528572Y-79442857D01*
X106452381Y-79480952D01*
X106147619Y-79480952D01*
X107366667Y-79861905D02*
X106909524Y-79861905D01*
X107138095Y-79861905D02*
X107138095Y-79061905D01*
X107061905Y-79176190D01*
X106985714Y-79252381D01*
X106909524Y-79290476D01*
X107861905Y-79061905D02*
X107938096Y-79061905D01*
X108014286Y-79100000D01*
X108052381Y-79138095D01*
X108090477Y-79214286D01*
X108128572Y-79366667D01*
X108128572Y-79557143D01*
X108090477Y-79709524D01*
X108052381Y-79785714D01*
X108014286Y-79823810D01*
X107938096Y-79861905D01*
X107861905Y-79861905D01*
X107785715Y-79823810D01*
X107747619Y-79785714D01*
X107709524Y-79709524D01*
X107671429Y-79557143D01*
X107671429Y-79366667D01*
X107709524Y-79214286D01*
X107747619Y-79138095D01*
X107785715Y-79100000D01*
X107861905Y-79061905D01*
X108814286Y-79328571D02*
X108814286Y-79861905D01*
X108623810Y-79023810D02*
X108433334Y-79595238D01*
X108928572Y-79595238D01*
X99628571Y-89561905D02*
X99628571Y-90209524D01*
X99666666Y-90285714D01*
X99704762Y-90323810D01*
X99780952Y-90361905D01*
X99933333Y-90361905D01*
X100009524Y-90323810D01*
X100047619Y-90285714D01*
X100085714Y-90209524D01*
X100085714Y-89561905D01*
X100885714Y-90361905D02*
X100428571Y-90361905D01*
X100657142Y-90361905D02*
X100657142Y-89561905D01*
X100580952Y-89676190D01*
X100504761Y-89752381D01*
X100428571Y-89790476D01*
X101380952Y-89561905D02*
X101457143Y-89561905D01*
X101533333Y-89600000D01*
X101571428Y-89638095D01*
X101609524Y-89714286D01*
X101647619Y-89866667D01*
X101647619Y-90057143D01*
X101609524Y-90209524D01*
X101571428Y-90285714D01*
X101533333Y-90323810D01*
X101457143Y-90361905D01*
X101380952Y-90361905D01*
X101304762Y-90323810D01*
X101266666Y-90285714D01*
X101228571Y-90209524D01*
X101190476Y-90057143D01*
X101190476Y-89866667D01*
X101228571Y-89714286D01*
X101266666Y-89638095D01*
X101304762Y-89600000D01*
X101380952Y-89561905D01*
X102409524Y-90361905D02*
X101952381Y-90361905D01*
X102180952Y-90361905D02*
X102180952Y-89561905D01*
X102104762Y-89676190D01*
X102028571Y-89752381D01*
X101952381Y-89790476D01*
X113128571Y-89811905D02*
X113128571Y-90459524D01*
X113166666Y-90535714D01*
X113204762Y-90573810D01*
X113280952Y-90611905D01*
X113433333Y-90611905D01*
X113509524Y-90573810D01*
X113547619Y-90535714D01*
X113585714Y-90459524D01*
X113585714Y-89811905D01*
X114385714Y-90611905D02*
X113928571Y-90611905D01*
X114157142Y-90611905D02*
X114157142Y-89811905D01*
X114080952Y-89926190D01*
X114004761Y-90002381D01*
X113928571Y-90040476D01*
X114880952Y-89811905D02*
X114957143Y-89811905D01*
X115033333Y-89850000D01*
X115071428Y-89888095D01*
X115109524Y-89964286D01*
X115147619Y-90116667D01*
X115147619Y-90307143D01*
X115109524Y-90459524D01*
X115071428Y-90535714D01*
X115033333Y-90573810D01*
X114957143Y-90611905D01*
X114880952Y-90611905D01*
X114804762Y-90573810D01*
X114766666Y-90535714D01*
X114728571Y-90459524D01*
X114690476Y-90307143D01*
X114690476Y-90116667D01*
X114728571Y-89964286D01*
X114766666Y-89888095D01*
X114804762Y-89850000D01*
X114880952Y-89811905D01*
X115452381Y-89888095D02*
X115490476Y-89850000D01*
X115566667Y-89811905D01*
X115757143Y-89811905D01*
X115833333Y-89850000D01*
X115871429Y-89888095D01*
X115909524Y-89964286D01*
X115909524Y-90040476D01*
X115871429Y-90154762D01*
X115414286Y-90611905D01*
X115909524Y-90611905D01*
X106322380Y-81761905D02*
X106322380Y-80961905D01*
X106322380Y-81342857D02*
X106779523Y-81342857D01*
X106779523Y-81761905D02*
X106779523Y-80961905D01*
X107160475Y-81761905D02*
X107160475Y-80961905D01*
X107427142Y-81533333D01*
X107693809Y-80961905D01*
X107693809Y-81761905D01*
X108531904Y-81685714D02*
X108493809Y-81723810D01*
X108379523Y-81761905D01*
X108303333Y-81761905D01*
X108189047Y-81723810D01*
X108112856Y-81647619D01*
X108074761Y-81571429D01*
X108036666Y-81419048D01*
X108036666Y-81304762D01*
X108074761Y-81152381D01*
X108112856Y-81076190D01*
X108189047Y-81000000D01*
X108303333Y-80961905D01*
X108379523Y-80961905D01*
X108493809Y-81000000D01*
X108531904Y-81038095D01*
X109217618Y-81228571D02*
X109217618Y-81761905D01*
X109027142Y-80923810D02*
X108836666Y-81495238D01*
X109331904Y-81495238D01*
X109560476Y-80961905D02*
X110093809Y-80961905D01*
X109750952Y-81761905D01*
X110741428Y-80961905D02*
X110589047Y-80961905D01*
X110512857Y-81000000D01*
X110474762Y-81038095D01*
X110398571Y-81152381D01*
X110360476Y-81304762D01*
X110360476Y-81609524D01*
X110398571Y-81685714D01*
X110436666Y-81723810D01*
X110512857Y-81761905D01*
X110665238Y-81761905D01*
X110741428Y-81723810D01*
X110779524Y-81685714D01*
X110817619Y-81609524D01*
X110817619Y-81419048D01*
X110779524Y-81342857D01*
X110741428Y-81304762D01*
X110665238Y-81266667D01*
X110512857Y-81266667D01*
X110436666Y-81304762D01*
X110398571Y-81342857D01*
X110360476Y-81419048D01*
X111160476Y-81761905D02*
X111160476Y-80961905D01*
X111427143Y-81533333D01*
X111693810Y-80961905D01*
X111693810Y-81761905D01*
X112074762Y-81761905D02*
X112074762Y-80961905D01*
X112379524Y-80961905D01*
X112455715Y-81000000D01*
X112493810Y-81038095D01*
X112531905Y-81114286D01*
X112531905Y-81228571D01*
X112493810Y-81304762D01*
X112455715Y-81342857D01*
X112379524Y-81380952D01*
X112074762Y-81380952D01*
X112989048Y-81304762D02*
X112912857Y-81266667D01*
X112874762Y-81228571D01*
X112836667Y-81152381D01*
X112836667Y-81114286D01*
X112874762Y-81038095D01*
X112912857Y-81000000D01*
X112989048Y-80961905D01*
X113141429Y-80961905D01*
X113217619Y-81000000D01*
X113255715Y-81038095D01*
X113293810Y-81114286D01*
X113293810Y-81152381D01*
X113255715Y-81228571D01*
X113217619Y-81266667D01*
X113141429Y-81304762D01*
X112989048Y-81304762D01*
X112912857Y-81342857D01*
X112874762Y-81380952D01*
X112836667Y-81457143D01*
X112836667Y-81609524D01*
X112874762Y-81685714D01*
X112912857Y-81723810D01*
X112989048Y-81761905D01*
X113141429Y-81761905D01*
X113217619Y-81723810D01*
X113255715Y-81685714D01*
X113293810Y-81609524D01*
X113293810Y-81457143D01*
X113255715Y-81380952D01*
X113217619Y-81342857D01*
X113141429Y-81304762D01*
X113979524Y-80961905D02*
X113827143Y-80961905D01*
X113750953Y-81000000D01*
X113712858Y-81038095D01*
X113636667Y-81152381D01*
X113598572Y-81304762D01*
X113598572Y-81609524D01*
X113636667Y-81685714D01*
X113674762Y-81723810D01*
X113750953Y-81761905D01*
X113903334Y-81761905D01*
X113979524Y-81723810D01*
X114017620Y-81685714D01*
X114055715Y-81609524D01*
X114055715Y-81419048D01*
X114017620Y-81342857D01*
X113979524Y-81304762D01*
X113903334Y-81266667D01*
X113750953Y-81266667D01*
X113674762Y-81304762D01*
X113636667Y-81342857D01*
X113598572Y-81419048D01*
X125128571Y-90061905D02*
X125128571Y-90709524D01*
X125166666Y-90785714D01*
X125204762Y-90823810D01*
X125280952Y-90861905D01*
X125433333Y-90861905D01*
X125509524Y-90823810D01*
X125547619Y-90785714D01*
X125585714Y-90709524D01*
X125585714Y-90061905D01*
X126385714Y-90861905D02*
X125928571Y-90861905D01*
X126157142Y-90861905D02*
X126157142Y-90061905D01*
X126080952Y-90176190D01*
X126004761Y-90252381D01*
X125928571Y-90290476D01*
X126880952Y-90061905D02*
X126957143Y-90061905D01*
X127033333Y-90100000D01*
X127071428Y-90138095D01*
X127109524Y-90214286D01*
X127147619Y-90366667D01*
X127147619Y-90557143D01*
X127109524Y-90709524D01*
X127071428Y-90785714D01*
X127033333Y-90823810D01*
X126957143Y-90861905D01*
X126880952Y-90861905D01*
X126804762Y-90823810D01*
X126766666Y-90785714D01*
X126728571Y-90709524D01*
X126690476Y-90557143D01*
X126690476Y-90366667D01*
X126728571Y-90214286D01*
X126766666Y-90138095D01*
X126804762Y-90100000D01*
X126880952Y-90061905D01*
X127414286Y-90061905D02*
X127909524Y-90061905D01*
X127642857Y-90366667D01*
X127757143Y-90366667D01*
X127833333Y-90404762D01*
X127871429Y-90442857D01*
X127909524Y-90519048D01*
X127909524Y-90709524D01*
X127871429Y-90785714D01*
X127833333Y-90823810D01*
X127757143Y-90861905D01*
X127528571Y-90861905D01*
X127452381Y-90823810D01*
X127414286Y-90785714D01*
M02*
