G04 #@! TF.FileFunction,Copper,L1,Top,Signal*
%FSLAX46Y46*%
G04 Gerber Fmt 4.6, Leading zero omitted, Abs format (unit mm)*
G04 Created by KiCad (PCBNEW 4.0.2-stable) date Sun Jun 26 23:15:05 2016*
%MOMM*%
G01*
G04 APERTURE LIST*
%ADD10C,0.100000*%
%ADD11C,3.810000*%
%ADD12C,3.556000*%
%ADD13R,1.397000X1.397000*%
%ADD14C,1.397000*%
%ADD15C,6.000000*%
%ADD16C,10.160000*%
%ADD17C,0.600000*%
%ADD18C,0.254000*%
G04 APERTURE END LIST*
D10*
D11*
X153585123Y-87590371D03*
D12*
X156760123Y-90765371D03*
D11*
X159935123Y-87590371D03*
X153585123Y-93940371D03*
X159935123Y-93940371D03*
D13*
X162500000Y-104960000D03*
D14*
X162500000Y-107500000D03*
X162500000Y-110040000D03*
D13*
X162500000Y-80040000D03*
D14*
X162500000Y-77500000D03*
X162500000Y-74960000D03*
D15*
X89700000Y-112000000D03*
X191800000Y-112000000D03*
X191800000Y-61500000D03*
X89700000Y-61500000D03*
D16*
X182213380Y-67708478D03*
X99213380Y-105708478D03*
X99213380Y-67708478D03*
X182113380Y-105708478D03*
D17*
X160250000Y-62500000D03*
X169500000Y-107500000D03*
X170806554Y-77449138D03*
X170306554Y-80449138D03*
X142260123Y-93265371D03*
X142260123Y-98265371D03*
X148760123Y-104015371D03*
X151010123Y-104015371D03*
X153510123Y-109765371D03*
X151260123Y-109765371D03*
X148760123Y-111515371D03*
X146260123Y-111515371D03*
X137760123Y-103515371D03*
X130760123Y-103515371D03*
X113760123Y-102515371D03*
X113760123Y-111515371D03*
X122760123Y-111515371D03*
X122760123Y-102765371D03*
D18*
G36*
X195819035Y-57203404D02*
X195908605Y-57263252D01*
X195968454Y-57352823D01*
X196003380Y-57528408D01*
X196003380Y-115888548D01*
X195968454Y-116064133D01*
X195908605Y-116153704D01*
X195819035Y-116213552D01*
X195643450Y-116248478D01*
X85783310Y-116248478D01*
X85607725Y-116213552D01*
X85518154Y-116153703D01*
X85458306Y-116064133D01*
X85423380Y-115888548D01*
X85423380Y-104261500D01*
X161154060Y-104261500D01*
X161154060Y-105658500D01*
X161198338Y-105893817D01*
X161337410Y-106109941D01*
X161549610Y-106254931D01*
X161801500Y-106305940D01*
X161897884Y-106305940D01*
X161745620Y-106368854D01*
X161370173Y-106743647D01*
X161166732Y-107233587D01*
X161166269Y-107764086D01*
X161368854Y-108254380D01*
X161743647Y-108629827D01*
X162081446Y-108770094D01*
X161745620Y-108908854D01*
X161370173Y-109283647D01*
X161166732Y-109773587D01*
X161166269Y-110304086D01*
X161368854Y-110794380D01*
X161743647Y-111169827D01*
X162233587Y-111373268D01*
X162764086Y-111373731D01*
X163254380Y-111171146D01*
X163629827Y-110796353D01*
X163833268Y-110306413D01*
X163833731Y-109775914D01*
X163631146Y-109285620D01*
X163256353Y-108910173D01*
X162918554Y-108769906D01*
X163254380Y-108631146D01*
X163629827Y-108256353D01*
X163833268Y-107766413D01*
X163833731Y-107235914D01*
X163631146Y-106745620D01*
X163256353Y-106370173D01*
X163101663Y-106305940D01*
X163198500Y-106305940D01*
X163433817Y-106261662D01*
X163649941Y-106122590D01*
X163794931Y-105910390D01*
X163845940Y-105658500D01*
X163845940Y-104261500D01*
X163801662Y-104026183D01*
X163662590Y-103810059D01*
X163450390Y-103665069D01*
X163198500Y-103614060D01*
X161801500Y-103614060D01*
X161566183Y-103658338D01*
X161350059Y-103797410D01*
X161205069Y-104009610D01*
X161154060Y-104261500D01*
X85423380Y-104261500D01*
X85423380Y-91243241D01*
X154346706Y-91243241D01*
X154713289Y-92130440D01*
X155391484Y-92809820D01*
X156278042Y-93177951D01*
X157237993Y-93178788D01*
X158125192Y-92812205D01*
X158804572Y-92134010D01*
X159172703Y-91247452D01*
X159173540Y-90287501D01*
X158806957Y-89400302D01*
X158128762Y-88720922D01*
X157242204Y-88352791D01*
X156282253Y-88351954D01*
X155395054Y-88718537D01*
X154715674Y-89396732D01*
X154347543Y-90283290D01*
X154346706Y-91243241D01*
X85423380Y-91243241D01*
X85423380Y-79341500D01*
X161154060Y-79341500D01*
X161154060Y-80738500D01*
X161198338Y-80973817D01*
X161337410Y-81189941D01*
X161549610Y-81334931D01*
X161801500Y-81385940D01*
X163198500Y-81385940D01*
X163433817Y-81341662D01*
X163649941Y-81202590D01*
X163794931Y-80990390D01*
X163845940Y-80738500D01*
X163845940Y-79341500D01*
X163801662Y-79106183D01*
X163662590Y-78890059D01*
X163450390Y-78745069D01*
X163198500Y-78694060D01*
X163102116Y-78694060D01*
X163254380Y-78631146D01*
X163629827Y-78256353D01*
X163833268Y-77766413D01*
X163833731Y-77235914D01*
X163631146Y-76745620D01*
X163256353Y-76370173D01*
X162918554Y-76229906D01*
X163254380Y-76091146D01*
X163629827Y-75716353D01*
X163833268Y-75226413D01*
X163833731Y-74695914D01*
X163631146Y-74205620D01*
X163256353Y-73830173D01*
X162766413Y-73626732D01*
X162235914Y-73626269D01*
X161745620Y-73828854D01*
X161370173Y-74203647D01*
X161166732Y-74693587D01*
X161166269Y-75224086D01*
X161368854Y-75714380D01*
X161743647Y-76089827D01*
X162081446Y-76230094D01*
X161745620Y-76368854D01*
X161370173Y-76743647D01*
X161166732Y-77233587D01*
X161166269Y-77764086D01*
X161368854Y-78254380D01*
X161743647Y-78629827D01*
X161898337Y-78694060D01*
X161801500Y-78694060D01*
X161566183Y-78738338D01*
X161350059Y-78877410D01*
X161205069Y-79089610D01*
X161154060Y-79341500D01*
X85423380Y-79341500D01*
X85423380Y-68840274D01*
X93497391Y-68840274D01*
X94365614Y-70941536D01*
X95971866Y-72550594D01*
X98071609Y-73422483D01*
X100345176Y-73424467D01*
X102446438Y-72556244D01*
X104055496Y-70949992D01*
X104927385Y-68850249D01*
X104927393Y-68840274D01*
X176497391Y-68840274D01*
X177365614Y-70941536D01*
X178971866Y-72550594D01*
X181071609Y-73422483D01*
X183345176Y-73424467D01*
X185446438Y-72556244D01*
X187055496Y-70949992D01*
X187927385Y-68850249D01*
X187929369Y-66576682D01*
X187061146Y-64475420D01*
X185454894Y-62866362D01*
X183355151Y-61994473D01*
X181081584Y-61992489D01*
X178980322Y-62860712D01*
X177371264Y-64466964D01*
X176499375Y-66566707D01*
X176497391Y-68840274D01*
X104927393Y-68840274D01*
X104929369Y-66576682D01*
X104061146Y-64475420D01*
X102454894Y-62866362D01*
X100355151Y-61994473D01*
X98081584Y-61992489D01*
X95980322Y-62860712D01*
X94371264Y-64466964D01*
X93499375Y-66566707D01*
X93497391Y-68840274D01*
X85423380Y-68840274D01*
X85423380Y-61500000D01*
X160873000Y-61500000D01*
X160873000Y-63500000D01*
X160881685Y-63546159D01*
X160908965Y-63588553D01*
X160950590Y-63616994D01*
X161000000Y-63627000D01*
X164000000Y-63627000D01*
X164046159Y-63618315D01*
X164088553Y-63591035D01*
X164116994Y-63549410D01*
X164127000Y-63500000D01*
X164127000Y-61500000D01*
X164118315Y-61453841D01*
X164091035Y-61411447D01*
X164049410Y-61383006D01*
X164000000Y-61373000D01*
X161000000Y-61373000D01*
X160953841Y-61381685D01*
X160911447Y-61408965D01*
X160883006Y-61450590D01*
X160873000Y-61500000D01*
X85423380Y-61500000D01*
X85423380Y-57528408D01*
X85458306Y-57352823D01*
X85518154Y-57263253D01*
X85607725Y-57203404D01*
X85783310Y-57168478D01*
X195643450Y-57168478D01*
X195819035Y-57203404D01*
X195819035Y-57203404D01*
G37*
X195819035Y-57203404D02*
X195908605Y-57263252D01*
X195968454Y-57352823D01*
X196003380Y-57528408D01*
X196003380Y-115888548D01*
X195968454Y-116064133D01*
X195908605Y-116153704D01*
X195819035Y-116213552D01*
X195643450Y-116248478D01*
X85783310Y-116248478D01*
X85607725Y-116213552D01*
X85518154Y-116153703D01*
X85458306Y-116064133D01*
X85423380Y-115888548D01*
X85423380Y-104261500D01*
X161154060Y-104261500D01*
X161154060Y-105658500D01*
X161198338Y-105893817D01*
X161337410Y-106109941D01*
X161549610Y-106254931D01*
X161801500Y-106305940D01*
X161897884Y-106305940D01*
X161745620Y-106368854D01*
X161370173Y-106743647D01*
X161166732Y-107233587D01*
X161166269Y-107764086D01*
X161368854Y-108254380D01*
X161743647Y-108629827D01*
X162081446Y-108770094D01*
X161745620Y-108908854D01*
X161370173Y-109283647D01*
X161166732Y-109773587D01*
X161166269Y-110304086D01*
X161368854Y-110794380D01*
X161743647Y-111169827D01*
X162233587Y-111373268D01*
X162764086Y-111373731D01*
X163254380Y-111171146D01*
X163629827Y-110796353D01*
X163833268Y-110306413D01*
X163833731Y-109775914D01*
X163631146Y-109285620D01*
X163256353Y-108910173D01*
X162918554Y-108769906D01*
X163254380Y-108631146D01*
X163629827Y-108256353D01*
X163833268Y-107766413D01*
X163833731Y-107235914D01*
X163631146Y-106745620D01*
X163256353Y-106370173D01*
X163101663Y-106305940D01*
X163198500Y-106305940D01*
X163433817Y-106261662D01*
X163649941Y-106122590D01*
X163794931Y-105910390D01*
X163845940Y-105658500D01*
X163845940Y-104261500D01*
X163801662Y-104026183D01*
X163662590Y-103810059D01*
X163450390Y-103665069D01*
X163198500Y-103614060D01*
X161801500Y-103614060D01*
X161566183Y-103658338D01*
X161350059Y-103797410D01*
X161205069Y-104009610D01*
X161154060Y-104261500D01*
X85423380Y-104261500D01*
X85423380Y-91243241D01*
X154346706Y-91243241D01*
X154713289Y-92130440D01*
X155391484Y-92809820D01*
X156278042Y-93177951D01*
X157237993Y-93178788D01*
X158125192Y-92812205D01*
X158804572Y-92134010D01*
X159172703Y-91247452D01*
X159173540Y-90287501D01*
X158806957Y-89400302D01*
X158128762Y-88720922D01*
X157242204Y-88352791D01*
X156282253Y-88351954D01*
X155395054Y-88718537D01*
X154715674Y-89396732D01*
X154347543Y-90283290D01*
X154346706Y-91243241D01*
X85423380Y-91243241D01*
X85423380Y-79341500D01*
X161154060Y-79341500D01*
X161154060Y-80738500D01*
X161198338Y-80973817D01*
X161337410Y-81189941D01*
X161549610Y-81334931D01*
X161801500Y-81385940D01*
X163198500Y-81385940D01*
X163433817Y-81341662D01*
X163649941Y-81202590D01*
X163794931Y-80990390D01*
X163845940Y-80738500D01*
X163845940Y-79341500D01*
X163801662Y-79106183D01*
X163662590Y-78890059D01*
X163450390Y-78745069D01*
X163198500Y-78694060D01*
X163102116Y-78694060D01*
X163254380Y-78631146D01*
X163629827Y-78256353D01*
X163833268Y-77766413D01*
X163833731Y-77235914D01*
X163631146Y-76745620D01*
X163256353Y-76370173D01*
X162918554Y-76229906D01*
X163254380Y-76091146D01*
X163629827Y-75716353D01*
X163833268Y-75226413D01*
X163833731Y-74695914D01*
X163631146Y-74205620D01*
X163256353Y-73830173D01*
X162766413Y-73626732D01*
X162235914Y-73626269D01*
X161745620Y-73828854D01*
X161370173Y-74203647D01*
X161166732Y-74693587D01*
X161166269Y-75224086D01*
X161368854Y-75714380D01*
X161743647Y-76089827D01*
X162081446Y-76230094D01*
X161745620Y-76368854D01*
X161370173Y-76743647D01*
X161166732Y-77233587D01*
X161166269Y-77764086D01*
X161368854Y-78254380D01*
X161743647Y-78629827D01*
X161898337Y-78694060D01*
X161801500Y-78694060D01*
X161566183Y-78738338D01*
X161350059Y-78877410D01*
X161205069Y-79089610D01*
X161154060Y-79341500D01*
X85423380Y-79341500D01*
X85423380Y-68840274D01*
X93497391Y-68840274D01*
X94365614Y-70941536D01*
X95971866Y-72550594D01*
X98071609Y-73422483D01*
X100345176Y-73424467D01*
X102446438Y-72556244D01*
X104055496Y-70949992D01*
X104927385Y-68850249D01*
X104927393Y-68840274D01*
X176497391Y-68840274D01*
X177365614Y-70941536D01*
X178971866Y-72550594D01*
X181071609Y-73422483D01*
X183345176Y-73424467D01*
X185446438Y-72556244D01*
X187055496Y-70949992D01*
X187927385Y-68850249D01*
X187929369Y-66576682D01*
X187061146Y-64475420D01*
X185454894Y-62866362D01*
X183355151Y-61994473D01*
X181081584Y-61992489D01*
X178980322Y-62860712D01*
X177371264Y-64466964D01*
X176499375Y-66566707D01*
X176497391Y-68840274D01*
X104927393Y-68840274D01*
X104929369Y-66576682D01*
X104061146Y-64475420D01*
X102454894Y-62866362D01*
X100355151Y-61994473D01*
X98081584Y-61992489D01*
X95980322Y-62860712D01*
X94371264Y-64466964D01*
X93499375Y-66566707D01*
X93497391Y-68840274D01*
X85423380Y-68840274D01*
X85423380Y-61500000D01*
X160873000Y-61500000D01*
X160873000Y-63500000D01*
X160881685Y-63546159D01*
X160908965Y-63588553D01*
X160950590Y-63616994D01*
X161000000Y-63627000D01*
X164000000Y-63627000D01*
X164046159Y-63618315D01*
X164088553Y-63591035D01*
X164116994Y-63549410D01*
X164127000Y-63500000D01*
X164127000Y-61500000D01*
X164118315Y-61453841D01*
X164091035Y-61411447D01*
X164049410Y-61383006D01*
X164000000Y-61373000D01*
X161000000Y-61373000D01*
X160953841Y-61381685D01*
X160911447Y-61408965D01*
X160883006Y-61450590D01*
X160873000Y-61500000D01*
X85423380Y-61500000D01*
X85423380Y-57528408D01*
X85458306Y-57352823D01*
X85518154Y-57263253D01*
X85607725Y-57203404D01*
X85783310Y-57168478D01*
X195643450Y-57168478D01*
X195819035Y-57203404D01*
M02*
