G04 #@! TF.FileFunction,Legend,Top*
%FSLAX46Y46*%
G04 Gerber Fmt 4.6, Leading zero omitted, Abs format (unit mm)*
G04 Created by KiCad (PCBNEW 4.0.2-stable) date Sun Jun 26 23:15:05 2016*
%MOMM*%
G01*
G04 APERTURE LIST*
%ADD10C,0.100000*%
%ADD11C,1.000000*%
%ADD12C,0.300000*%
%ADD13C,0.500000*%
%ADD14C,0.150000*%
G04 APERTURE END LIST*
D10*
D11*
X182250000Y-113500000D02*
X180250000Y-113500000D01*
X182250000Y-113500000D02*
X184250000Y-113500000D01*
X182250000Y-110750000D02*
X182250000Y-113500000D01*
X97250000Y-113500000D02*
X101250000Y-113500000D01*
X99250000Y-113500000D02*
X97250000Y-113500000D01*
X99250000Y-112750000D02*
X99250000Y-113500000D01*
X99250000Y-110750000D02*
X99250000Y-112750000D01*
D12*
X142250001Y-61178571D02*
X141535715Y-61178571D01*
X141464286Y-61892857D01*
X141535715Y-61821429D01*
X141678572Y-61750000D01*
X142035715Y-61750000D01*
X142178572Y-61821429D01*
X142250001Y-61892857D01*
X142321429Y-62035714D01*
X142321429Y-62392857D01*
X142250001Y-62535714D01*
X142178572Y-62607143D01*
X142035715Y-62678571D01*
X141678572Y-62678571D01*
X141535715Y-62607143D01*
X141464286Y-62535714D01*
X142964286Y-62535714D02*
X143035714Y-62607143D01*
X142964286Y-62678571D01*
X142892857Y-62607143D01*
X142964286Y-62535714D01*
X142964286Y-62678571D01*
X144392858Y-61178571D02*
X143678572Y-61178571D01*
X143607143Y-61892857D01*
X143678572Y-61821429D01*
X143821429Y-61750000D01*
X144178572Y-61750000D01*
X144321429Y-61821429D01*
X144392858Y-61892857D01*
X144464286Y-62035714D01*
X144464286Y-62392857D01*
X144392858Y-62535714D01*
X144321429Y-62607143D01*
X144178572Y-62678571D01*
X143821429Y-62678571D01*
X143678572Y-62607143D01*
X143607143Y-62535714D01*
X146892857Y-61678571D02*
X146892857Y-62678571D01*
X146250000Y-61678571D02*
X146250000Y-62464286D01*
X146321428Y-62607143D01*
X146464286Y-62678571D01*
X146678571Y-62678571D01*
X146821428Y-62607143D01*
X146892857Y-62535714D01*
X147607143Y-62678571D02*
X147607143Y-61178571D01*
X147607143Y-61892857D02*
X148464286Y-61892857D01*
X148464286Y-62678571D02*
X148464286Y-61178571D01*
X135000001Y-88607143D02*
X136142858Y-88607143D01*
X137642858Y-89178571D02*
X136785715Y-89178571D01*
X137214287Y-89178571D02*
X137214287Y-87678571D01*
X137071430Y-87892857D01*
X136928572Y-88035714D01*
X136785715Y-88107143D01*
X138571429Y-87678571D02*
X138714286Y-87678571D01*
X138857143Y-87750000D01*
X138928572Y-87821429D01*
X139000001Y-87964286D01*
X139071429Y-88250000D01*
X139071429Y-88607143D01*
X139000001Y-88892857D01*
X138928572Y-89035714D01*
X138857143Y-89107143D01*
X138714286Y-89178571D01*
X138571429Y-89178571D01*
X138428572Y-89107143D01*
X138357143Y-89035714D01*
X138285715Y-88892857D01*
X138214286Y-88607143D01*
X138214286Y-88250000D01*
X138285715Y-87964286D01*
X138357143Y-87821429D01*
X138428572Y-87750000D01*
X138571429Y-87678571D01*
X141500000Y-89178571D02*
X141500000Y-87678571D01*
X141500000Y-89107143D02*
X141357143Y-89178571D01*
X141071429Y-89178571D01*
X140928571Y-89107143D01*
X140857143Y-89035714D01*
X140785714Y-88892857D01*
X140785714Y-88464286D01*
X140857143Y-88321429D01*
X140928571Y-88250000D01*
X141071429Y-88178571D01*
X141357143Y-88178571D01*
X141500000Y-88250000D01*
X142714286Y-88392857D02*
X142928572Y-88464286D01*
X143000000Y-88535714D01*
X143071429Y-88678571D01*
X143071429Y-88892857D01*
X143000000Y-89035714D01*
X142928572Y-89107143D01*
X142785714Y-89178571D01*
X142214286Y-89178571D01*
X142214286Y-87678571D01*
X142714286Y-87678571D01*
X142857143Y-87750000D01*
X142928572Y-87821429D01*
X143000000Y-87964286D01*
X143000000Y-88107143D01*
X142928572Y-88250000D01*
X142857143Y-88321429D01*
X142714286Y-88392857D01*
X142214286Y-88392857D01*
D11*
X128000000Y-80000000D02*
X128000000Y-68000000D01*
X126000000Y-80000000D02*
X130000000Y-80000000D01*
X126000000Y-82000000D02*
X130000000Y-82000000D01*
X128000000Y-91000000D02*
X128000000Y-82000000D01*
X157000000Y-91000000D02*
X128000000Y-91000000D01*
X182500000Y-67500000D02*
X155000000Y-67500000D01*
X155000000Y-67500000D02*
G75*
G03X150000000Y-67500000I-2500000J0D01*
G01*
X150000000Y-67500000D02*
G75*
G03X145000000Y-67500000I-2500000J0D01*
G01*
X145000000Y-67500000D02*
G75*
G03X140000000Y-67500000I-2500000J0D01*
G01*
X140000000Y-67500000D02*
G75*
G03X135000000Y-67500000I-2500000J0D01*
G01*
X100000000Y-67500000D02*
X135000000Y-67500000D01*
D13*
X130142857Y-102357143D02*
X128714286Y-102357143D01*
X128714286Y-99357143D01*
X131142857Y-102357143D02*
X131142857Y-99357143D01*
X132428571Y-102214286D02*
X132857142Y-102357143D01*
X133571428Y-102357143D01*
X133857142Y-102214286D01*
X133999999Y-102071429D01*
X134142856Y-101785714D01*
X134142856Y-101500000D01*
X133999999Y-101214286D01*
X133857142Y-101071429D01*
X133571428Y-100928571D01*
X132999999Y-100785714D01*
X132714285Y-100642857D01*
X132571428Y-100500000D01*
X132428571Y-100214286D01*
X132428571Y-99928571D01*
X132571428Y-99642857D01*
X132714285Y-99500000D01*
X132999999Y-99357143D01*
X133714285Y-99357143D01*
X134142856Y-99500000D01*
X135428571Y-102357143D02*
X135428571Y-99357143D01*
X137142856Y-102357143D01*
X137142856Y-99357143D01*
X140857142Y-102357143D02*
X140857142Y-100357143D01*
X140857142Y-100928571D02*
X140999999Y-100642857D01*
X141142856Y-100500000D01*
X141428570Y-100357143D01*
X141714285Y-100357143D01*
X143285713Y-99357143D02*
X143571428Y-99357143D01*
X143857142Y-99500000D01*
X143999999Y-99642857D01*
X144142856Y-99928571D01*
X144285713Y-100500000D01*
X144285713Y-101214286D01*
X144142856Y-101785714D01*
X143999999Y-102071429D01*
X143857142Y-102214286D01*
X143571428Y-102357143D01*
X143285713Y-102357143D01*
X142999999Y-102214286D01*
X142857142Y-102071429D01*
X142714285Y-101785714D01*
X142571428Y-101214286D01*
X142571428Y-100500000D01*
X142714285Y-99928571D01*
X142857142Y-99642857D01*
X142999999Y-99500000D01*
X143285713Y-99357143D01*
D12*
X156107143Y-110678571D02*
X156107143Y-109178571D01*
X156750000Y-110678571D02*
X156750000Y-109892857D01*
X156678571Y-109750000D01*
X156535714Y-109678571D01*
X156321429Y-109678571D01*
X156178571Y-109750000D01*
X156107143Y-109821429D01*
X157464286Y-110678571D02*
X157464286Y-109678571D01*
X157464286Y-109178571D02*
X157392857Y-109250000D01*
X157464286Y-109321429D01*
X157535714Y-109250000D01*
X157464286Y-109178571D01*
X157464286Y-109321429D01*
X158035715Y-109178571D02*
X159035715Y-109178571D01*
X158035715Y-110678571D01*
X159035715Y-110678571D01*
X157142858Y-104178571D02*
X156428572Y-104178571D01*
X156357143Y-104892857D01*
X156428572Y-104821429D01*
X156571429Y-104750000D01*
X156928572Y-104750000D01*
X157071429Y-104821429D01*
X157142858Y-104892857D01*
X157214286Y-105035714D01*
X157214286Y-105392857D01*
X157142858Y-105535714D01*
X157071429Y-105607143D01*
X156928572Y-105678571D01*
X156571429Y-105678571D01*
X156428572Y-105607143D01*
X156357143Y-105535714D01*
X158142857Y-104178571D02*
X158285714Y-104178571D01*
X158428571Y-104250000D01*
X158500000Y-104321429D01*
X158571429Y-104464286D01*
X158642857Y-104750000D01*
X158642857Y-105107143D01*
X158571429Y-105392857D01*
X158500000Y-105535714D01*
X158428571Y-105607143D01*
X158285714Y-105678571D01*
X158142857Y-105678571D01*
X158000000Y-105607143D01*
X157928571Y-105535714D01*
X157857143Y-105392857D01*
X157785714Y-105107143D01*
X157785714Y-104750000D01*
X157857143Y-104464286D01*
X157928571Y-104321429D01*
X158000000Y-104250000D01*
X158142857Y-104178571D01*
X156500000Y-80607143D02*
X156357143Y-80678571D01*
X156071429Y-80678571D01*
X155928571Y-80607143D01*
X155857143Y-80535714D01*
X155785714Y-80392857D01*
X155785714Y-79964286D01*
X155857143Y-79821429D01*
X155928571Y-79750000D01*
X156071429Y-79678571D01*
X156357143Y-79678571D01*
X156500000Y-79750000D01*
X157785714Y-80678571D02*
X157785714Y-79892857D01*
X157714285Y-79750000D01*
X157571428Y-79678571D01*
X157285714Y-79678571D01*
X157142857Y-79750000D01*
X157785714Y-80607143D02*
X157642857Y-80678571D01*
X157285714Y-80678571D01*
X157142857Y-80607143D01*
X157071428Y-80464286D01*
X157071428Y-80321429D01*
X157142857Y-80178571D01*
X157285714Y-80107143D01*
X157642857Y-80107143D01*
X157785714Y-80035714D01*
X158500000Y-79678571D02*
X158500000Y-81178571D01*
X158500000Y-79750000D02*
X158642857Y-79678571D01*
X158928571Y-79678571D01*
X159071428Y-79750000D01*
X159142857Y-79821429D01*
X159214286Y-79964286D01*
X159214286Y-80392857D01*
X159142857Y-80535714D01*
X159071428Y-80607143D01*
X158928571Y-80678571D01*
X158642857Y-80678571D01*
X158500000Y-80607143D01*
X165964286Y-91678571D02*
X165964286Y-90678571D01*
X165964286Y-90964286D02*
X166035714Y-90821429D01*
X166107143Y-90750000D01*
X166250000Y-90678571D01*
X166392857Y-90678571D01*
X166678571Y-90678571D02*
X167250000Y-90678571D01*
X166892857Y-91678571D02*
X166892857Y-90392857D01*
X166964285Y-90250000D01*
X167107143Y-90178571D01*
X167250000Y-90178571D01*
X180428571Y-91857143D02*
X180428571Y-94285714D01*
X180285714Y-94571429D01*
X180142857Y-94714286D01*
X179857142Y-94857143D01*
X179428571Y-94857143D01*
X179142857Y-94714286D01*
X180428571Y-93714286D02*
X180142857Y-93857143D01*
X179571428Y-93857143D01*
X179285714Y-93714286D01*
X179142857Y-93571429D01*
X179000000Y-93285714D01*
X179000000Y-92428571D01*
X179142857Y-92142857D01*
X179285714Y-92000000D01*
X179571428Y-91857143D01*
X180142857Y-91857143D01*
X180428571Y-92000000D01*
X181857143Y-91857143D02*
X181857143Y-93857143D01*
X181857143Y-92142857D02*
X182000000Y-92000000D01*
X182285714Y-91857143D01*
X182714286Y-91857143D01*
X183000000Y-92000000D01*
X183142857Y-92285714D01*
X183142857Y-93857143D01*
X185857143Y-93857143D02*
X185857143Y-90857143D01*
X185857143Y-93714286D02*
X185571429Y-93857143D01*
X185000000Y-93857143D01*
X184714286Y-93714286D01*
X184571429Y-93571429D01*
X184428572Y-93285714D01*
X184428572Y-92428571D01*
X184571429Y-92142857D01*
X184714286Y-92000000D01*
X185000000Y-91857143D01*
X185571429Y-91857143D01*
X185857143Y-92000000D01*
X179428571Y-80857143D02*
X180428571Y-83857143D01*
X181428571Y-80857143D01*
X182428572Y-83857143D02*
X182428572Y-81857143D01*
X182428572Y-80857143D02*
X182285715Y-81000000D01*
X182428572Y-81142857D01*
X182571429Y-81000000D01*
X182428572Y-80857143D01*
X182428572Y-81142857D01*
X183857143Y-81857143D02*
X183857143Y-83857143D01*
X183857143Y-82142857D02*
X184000000Y-82000000D01*
X184285714Y-81857143D01*
X184714286Y-81857143D01*
X185000000Y-82000000D01*
X185142857Y-82285714D01*
X185142857Y-83857143D01*
X95428571Y-80857143D02*
X96428571Y-83857143D01*
X97428571Y-80857143D01*
X99714286Y-83857143D02*
X99714286Y-80857143D01*
X99714286Y-83714286D02*
X99428572Y-83857143D01*
X98857143Y-83857143D01*
X98571429Y-83714286D01*
X98428572Y-83571429D01*
X98285715Y-83285714D01*
X98285715Y-82428571D01*
X98428572Y-82142857D01*
X98571429Y-82000000D01*
X98857143Y-81857143D01*
X99428572Y-81857143D01*
X99714286Y-82000000D01*
X102428572Y-81857143D02*
X102428572Y-83857143D01*
X101142858Y-81857143D02*
X101142858Y-83428571D01*
X101285715Y-83714286D01*
X101571429Y-83857143D01*
X102000001Y-83857143D01*
X102285715Y-83714286D01*
X102428572Y-83571429D01*
X103428572Y-81857143D02*
X104571429Y-81857143D01*
X103857144Y-80857143D02*
X103857144Y-83428571D01*
X104000001Y-83714286D01*
X104285715Y-83857143D01*
X104571429Y-83857143D01*
X97928571Y-91857143D02*
X97928571Y-94285714D01*
X97785714Y-94571429D01*
X97642857Y-94714286D01*
X97357142Y-94857143D01*
X96928571Y-94857143D01*
X96642857Y-94714286D01*
X97928571Y-93714286D02*
X97642857Y-93857143D01*
X97071428Y-93857143D01*
X96785714Y-93714286D01*
X96642857Y-93571429D01*
X96500000Y-93285714D01*
X96500000Y-92428571D01*
X96642857Y-92142857D01*
X96785714Y-92000000D01*
X97071428Y-91857143D01*
X97642857Y-91857143D01*
X97928571Y-92000000D01*
X99357143Y-91857143D02*
X99357143Y-93857143D01*
X99357143Y-92142857D02*
X99500000Y-92000000D01*
X99785714Y-91857143D01*
X100214286Y-91857143D01*
X100500000Y-92000000D01*
X100642857Y-92285714D01*
X100642857Y-93857143D01*
X103357143Y-93857143D02*
X103357143Y-90857143D01*
X103357143Y-93714286D02*
X103071429Y-93857143D01*
X102500000Y-93857143D01*
X102214286Y-93714286D01*
X102071429Y-93571429D01*
X101928572Y-93285714D01*
X101928572Y-92428571D01*
X102071429Y-92142857D01*
X102214286Y-92000000D01*
X102500000Y-91857143D01*
X103071429Y-91857143D01*
X103357143Y-92000000D01*
D14*
X163745123Y-90765371D02*
G75*
G03X163745123Y-90765371I-6985000J0D01*
G01*
X161230000Y-103690000D02*
X163770000Y-103690000D01*
X163770000Y-103690000D02*
X163770000Y-111310000D01*
X163770000Y-111310000D02*
X161230000Y-111310000D01*
X161230000Y-111310000D02*
X161230000Y-103690000D01*
X163770000Y-106230000D02*
X161230000Y-106230000D01*
X163770000Y-81310000D02*
X161230000Y-81310000D01*
X161230000Y-81310000D02*
X161230000Y-73690000D01*
X161230000Y-73690000D02*
X163770000Y-73690000D01*
X163770000Y-73690000D02*
X163770000Y-81310000D01*
X161230000Y-78770000D02*
X163770000Y-78770000D01*
X188309380Y-67708478D02*
G75*
G03X188309380Y-67708478I-6096000J0D01*
G01*
X105309380Y-105708478D02*
G75*
G03X105309380Y-105708478I-6096000J0D01*
G01*
X105309380Y-67708478D02*
G75*
G03X105309380Y-67708478I-6096000J0D01*
G01*
X188209380Y-105708478D02*
G75*
G03X188209380Y-105708478I-6096000J0D01*
G01*
M02*
