G04 #@! TF.FileFunction,Soldermask,Bot*
%FSLAX46Y46*%
G04 Gerber Fmt 4.6, Leading zero omitted, Abs format (unit mm)*
G04 Created by KiCad (PCBNEW 4.0.2-stable) date Sun Jun 26 23:15:05 2016*
%MOMM*%
G01*
G04 APERTURE LIST*
%ADD10C,0.100000*%
%ADD11R,1.400000X1.650000*%
%ADD12R,1.620000X1.310000*%
%ADD13R,1.310000X1.620000*%
%ADD14R,2.900000X1.300000*%
%ADD15C,4.210000*%
%ADD16C,3.956000*%
%ADD17R,1.300000X2.900000*%
%ADD18R,1.700000X1.100000*%
%ADD19R,1.100000X1.700000*%
%ADD20R,1.797000X1.797000*%
%ADD21C,1.797000*%
%ADD22R,3.100000X2.600000*%
%ADD23R,1.400000X2.900000*%
%ADD24C,6.400000*%
%ADD25R,2.900000X1.400000*%
%ADD26R,1.197560X1.197560*%
%ADD27C,10.560000*%
%ADD28C,0.254000*%
G04 APERTURE END LIST*
D10*
D11*
X128260123Y-107265371D03*
X126260123Y-107265371D03*
X135260123Y-107265371D03*
X133260123Y-107265371D03*
X166806554Y-80449138D03*
X168806554Y-80449138D03*
D12*
X148760123Y-110400371D03*
X148760123Y-107130371D03*
X146260123Y-107130371D03*
X146260123Y-110400371D03*
D13*
X143375123Y-98265371D03*
X146645123Y-98265371D03*
X146645123Y-93265371D03*
X143375123Y-93265371D03*
D14*
X130760123Y-107215371D03*
X130760123Y-104315371D03*
D15*
X153585123Y-87590371D03*
D16*
X156760123Y-90765371D03*
D15*
X159935123Y-87590371D03*
X153585123Y-93940371D03*
X159935123Y-93940371D03*
D14*
X113760123Y-107815371D03*
X113760123Y-110715371D03*
X113760123Y-106265371D03*
X113760123Y-103365371D03*
D17*
X119660123Y-107265371D03*
X116760123Y-107265371D03*
D14*
X122760123Y-106465371D03*
X122760123Y-103565371D03*
X122760123Y-107815371D03*
X122760123Y-110715371D03*
X137760123Y-107215371D03*
X137760123Y-104315371D03*
D17*
X143660123Y-107265371D03*
X140760123Y-107265371D03*
D18*
X153510123Y-107065371D03*
X153510123Y-108965371D03*
X151260123Y-107065371D03*
X151260123Y-108965371D03*
X153510123Y-103565371D03*
X153510123Y-105465371D03*
X148760123Y-101065371D03*
X148760123Y-102965371D03*
X151010123Y-101065371D03*
X151010123Y-102965371D03*
D19*
X166050000Y-107500000D03*
X167950000Y-107500000D03*
D20*
X162500000Y-104960000D03*
D21*
X162500000Y-107500000D03*
X162500000Y-110040000D03*
D20*
X162500000Y-80040000D03*
D21*
X162500000Y-77500000D03*
X162500000Y-74960000D03*
D22*
X112956554Y-67699138D03*
X118056554Y-67699138D03*
X123006554Y-67699138D03*
X128106554Y-67699138D03*
X133006554Y-67699138D03*
X138106554Y-67699138D03*
X143006554Y-67699138D03*
X148106554Y-67699138D03*
X153006554Y-67699138D03*
X158106554Y-67699138D03*
D23*
X166806554Y-77449138D03*
X169806554Y-77449138D03*
D24*
X89700000Y-112000000D03*
X191800000Y-112000000D03*
X191800000Y-61500000D03*
X89700000Y-61500000D03*
D25*
X109500000Y-75750000D03*
X109500000Y-72750000D03*
D26*
X163249300Y-62500000D03*
X161750700Y-62500000D03*
D14*
X168250000Y-64050000D03*
X168250000Y-66950000D03*
D27*
X182213380Y-67708478D03*
X99213380Y-105708478D03*
X99213380Y-67708478D03*
X182113380Y-105708478D03*
D28*
G36*
X164123000Y-61623000D02*
X160877000Y-61623000D01*
X160877000Y-61377000D01*
X164123000Y-61377000D01*
X164123000Y-61623000D01*
X164123000Y-61623000D01*
G37*
X164123000Y-61623000D02*
X160877000Y-61623000D01*
X160877000Y-61377000D01*
X164123000Y-61377000D01*
X164123000Y-61623000D01*
G36*
X164123000Y-63623000D02*
X160877000Y-63623000D01*
X160877000Y-63377000D01*
X164123000Y-63377000D01*
X164123000Y-63623000D01*
X164123000Y-63623000D01*
G37*
X164123000Y-63623000D02*
X160877000Y-63623000D01*
X160877000Y-63377000D01*
X164123000Y-63377000D01*
X164123000Y-63623000D01*
M02*
