M48
;DRILL file {KiCad 4.0.2-stable} date Sun Jun 26 23:15:08 2016
;FORMAT={3:3/ absolute / metric / keep zeros}
FMAT,2
METRIC,TZ
T1C0.400
T2C0.813
T3C1.270
T4C1.524
T5C4.000
T6C6.350
%
G90
G05
M71
T1
X113760Y-102515
X113760Y-111515
X122760Y-102765
X122760Y-111515
X130760Y-103515
X137760Y-103515
X142260Y-093265
X142260Y-098265
X146260Y-111515
X148760Y-104015
X148760Y-111515
X151010Y-104015
X151260Y-109765
X153510Y-109765
X160250Y-062500
X169500Y-107500
X170307Y-080449
X170807Y-077449
T2
X162500Y-074960
X162500Y-077500
X162500Y-080040
X162500Y-104960
X162500Y-107500
X162500Y-110040
T3
X156760Y-090765
T4
X153585Y-087590
X153585Y-093940
X159935Y-087590
X159935Y-093940
T5
X089700Y-061500
X089700Y-112000
X191800Y-061500
X191800Y-112000
T6
X099213Y-067708
X099213Y-105708
X182113Y-105708
X182213Y-067708
T0
M30
